<?xml version="1.0" encoding="UTF-8" standalone="no"?>
<svg
   xmlns:dc="http://purl.org/dc/elements/1.1/"
   xmlns:cc="http://creativecommons.org/ns#"
   xmlns:rdf="http://www.w3.org/1999/02/22-rdf-syntax-ns#"
   xmlns:svg="http://www.w3.org/2000/svg"
   xmlns="http://www.w3.org/2000/svg"
   xmlns:sodipodi="http://sodipodi.sourceforge.net/DTD/sodipodi-0.dtd"
   xmlns:inkscape="http://www.inkscape.org/namespaces/inkscape"
   viewBox="0 0 100 100"
   version="1.1"
   id="svg4"
   sodipodi:docname="number-two.svg"
   width="100"
   height="100"
   style="clip-rule:evenodd;fill-rule:evenodd;image-rendering:optimizeQuality;shape-rendering:geometricPrecision;text-rendering:geometricPrecision"
   inkscape:version="0.92.2 (5c3e80d, 2017-08-06)">
  <metadata
     id="metadata10">
    <rdf:RDF>
      <cc:Work
         rdf:about="">
        <dc:format>image/svg+xml</dc:format>
        <dc:type
           rdf:resource="http://purl.org/dc/dcmitype/StillImage" />
        <dc:title></dc:title>
      </cc:Work>
    </rdf:RDF>
  </metadata>
  <defs
     id="defs8" />
  <sodipodi:namedview
     pagecolor="#ffffff"
     bordercolor="#666666"
     borderopacity="1"
     objecttolerance="10"
     gridtolerance="10"
     guidetolerance="10"
     inkscape:pageopacity="0"
     inkscape:pageshadow="2"
     inkscape:window-width="1366"
     inkscape:window-height="705"
     id="namedview6"
     showgrid="false"
     fit-margin-top="0"
     fit-margin-left="0"
     fit-margin-right="0"
     fit-margin-bottom="0"
     inkscape:zoom="0.01"
     inkscape:cx="196766.5"
     inkscape:cy="150817.5"
     inkscape:window-x="-8"
     inkscape:window-y="-8"
     inkscape:window-maximized="1"
     inkscape:current-layer="svg4" />
  <path
     d="M 50,0 C 63.806572,0 76.306647,5.6 85.355229,14.64 94.403511,23.69 100,36.19 100,50 100,63.81 94.403511,76.31 85.355229,85.36 76.306947,94.4 63.806872,100 50,100 36.193428,100 23.693353,94.4 14.644771,85.36 5.5964888,76.31 0,63.81 0,50 0,36.19 5.5964888,23.69 14.644771,14.64 23.693053,5.6 36.193128,0 50,0 Z M 66.853066,70.55 H 33.146934 c 0.385799,-3.32 1.562097,-6.45 3.519293,-9.38 1.957196,-2.94 5.627088,-6.4 11.009378,-10.39 3.293393,-2.45 5.401189,-4.3 6.332687,-5.57 0.922198,-1.27 1.383297,-2.47 1.383297,-3.61 0,-1.24 -0.451799,-2.29 -1.364397,-3.16 -0.912898,-0.88 -2.060696,-1.31 -3.443993,-1.31 -1.430397,0 -2.606695,0.45 -3.519293,1.35 -0.912898,0.92 -1.524297,2.51 -1.834796,4.8 L 33.993832,42.37 c 0.442199,-3.17 1.251598,-5.64 2.427895,-7.42 1.175998,-1.77 2.832294,-3.13 4.96829,-4.08 2.145596,-0.95 5.10959,-1.42 8.892282,-1.42 3.952193,0 7.019686,0.45 9.221682,1.35 2.192396,0.9 3.923992,2.28 5.17529,4.14 1.260897,1.88 1.891496,3.97 1.891496,6.28 0,2.46 -0.724499,4.81 -2.164196,7.06 -1.439697,2.24 -4.064992,4.7 -7.876184,7.38 -2.258396,1.57 -3.773393,2.67 -4.535691,3.29 -0.762298,0.63 -1.655997,1.44 -2.690995,2.45 H 66.853066 Z M 81.988636,18.01 C 73.802252,9.82 62.492575,4.76 50.0003,4.76 37.508025,4.76 26.198348,9.82 18.011964,18.01 9.8255803,26.2 4.7621905,37.51 4.7621905,50 c 0,12.49 5.0633898,23.8 13.2497735,31.99 8.186384,8.18 19.496061,13.25 31.988336,13.25 12.492275,0 23.801952,-5.07 31.988336,-13.25 C 90.17502,73.8 95.23841,62.49 95.23841,50 c 0,-12.49 -5.06339,-23.8 -13.249774,-31.99 z"
     id="path2"
     inkscape:connector-curvature="0"
     style="fill-rule:nonzero;stroke-width:1" />
</svg>
