<?xml version="1.0" encoding="UTF-8" standalone="no"?>
<svg
   xmlns:dc="http://purl.org/dc/elements/1.1/"
   xmlns:cc="http://creativecommons.org/ns#"
   xmlns:rdf="http://www.w3.org/1999/02/22-rdf-syntax-ns#"
   xmlns:svg="http://www.w3.org/2000/svg"
   xmlns="http://www.w3.org/2000/svg"
   xmlns:sodipodi="http://sodipodi.sourceforge.net/DTD/sodipodi-0.dtd"
   xmlns:inkscape="http://www.inkscape.org/namespaces/inkscape"
   viewBox="0 0 100 100"
   version="1.1"
   id="svg4"
   sodipodi:docname="number-three.svg"
   width="100"
   height="100"
   style="clip-rule:evenodd;fill-rule:evenodd;image-rendering:optimizeQuality;shape-rendering:geometricPrecision;text-rendering:geometricPrecision"
   inkscape:version="0.92.2 (5c3e80d, 2017-08-06)">
  <metadata
     id="metadata10">
    <rdf:RDF>
      <cc:Work
         rdf:about="">
        <dc:format>image/svg+xml</dc:format>
        <dc:type
           rdf:resource="http://purl.org/dc/dcmitype/StillImage" />
        <dc:title></dc:title>
      </cc:Work>
    </rdf:RDF>
  </metadata>
  <defs
     id="defs8" />
  <sodipodi:namedview
     pagecolor="#ffffff"
     bordercolor="#666666"
     borderopacity="1"
     objecttolerance="10"
     gridtolerance="10"
     guidetolerance="10"
     inkscape:pageopacity="0"
     inkscape:pageshadow="2"
     inkscape:window-width="1366"
     inkscape:window-height="705"
     id="namedview6"
     showgrid="false"
     fit-margin-top="0"
     fit-margin-left="0"
     fit-margin-right="0"
     fit-margin-bottom="0"
     inkscape:zoom="1.8101934"
     inkscape:cx="-86.808291"
     inkscape:cy="-39.880559"
     inkscape:window-x="-8"
     inkscape:window-y="-8"
     inkscape:window-maximized="1"
     inkscape:current-layer="svg4" />
  <path
     d="M 50,0 C 63.806572,0 76.306647,5.6 85.355229,14.64 94.403511,23.69 100,36.19 100,50 100,63.81 94.403511,76.31 85.355229,85.36 76.306947,94.4 63.806872,100 50,100 36.193428,100 23.693353,94.4 14.644771,85.36 5.5964888,76.31 0,63.81 0,50 0,36.19 5.5964888,23.69 14.644771,14.64 23.693053,5.6 36.193128,0 50,0 Z M 44.621011,41.87 34.141732,40 c 0.873298,-3.33 2.536195,-5.89 5.01659,-7.67 2.471095,-1.77 5.973588,-2.67 10.497879,-2.67 5.202289,0 8.955582,0.97 11.278177,2.91 2.313296,1.94 3.474593,4.39 3.474593,7.32 0,1.72 -0.473999,3.28 -1.412097,4.68 -0.938398,1.39 -2.350495,2.62 -4.245592,3.67 1.542297,0.38 2.721895,0.82 3.530093,1.33 1.328398,0.82 2.350496,1.9 3.084294,3.23 0.733799,1.33 1.105498,2.92 1.105498,4.77 0,2.32 -0.603899,4.55 -1.820996,6.69 -1.217098,2.13 -2.963694,3.77 -5.24879,4.92 -2.285395,1.16 -5.285989,1.73 -9.011682,1.73 -3.623093,0 -6.484487,-0.42 -8.574883,-1.28 -2.099395,-0.85 -3.818392,-2.1 -5.174689,-3.74 -1.346998,-1.65 -2.387696,-3.72 -3.112194,-6.21 L 44.620411,58.2 c 0.436799,2.24 1.105498,3.8 2.025296,4.67 0.910498,0.86 2.071796,1.3 3.493193,1.3 1.477197,0 2.712894,-0.55 3.706792,-1.64 0.984598,-1.08 1.477197,-2.53 1.477197,-4.35 0,-1.85 -0.473699,-3.28 -1.421397,-4.31 -0.947698,-1.01 -2.238895,-1.52 -3.864892,-1.52 -0.863998,0 -2.062196,0.21 -3.576593,0.65 l 0.575999,-7.92 c 0.603899,0.1 1.077598,0.14 1.421397,0.14 1.430697,0 2.629195,-0.47 3.585893,-1.39 0.956998,-0.92 1.439997,-2 1.439997,-3.27 0,-1.22 -0.362099,-2.18 -1.077598,-2.9 -0.724498,-0.72 -1.718696,-1.08 -2.972694,-1.08 -1.300497,0 -2.350495,0.39 -3.167994,1.18 -0.808198,0.78 -1.356297,2.15 -1.644296,4.11 z M 81.988636,18.01 C 73.802252,9.82 62.492575,4.76 50.0003,4.76 37.508025,4.76 26.198348,9.82 18.011964,18.01 9.8255803,26.2 4.7621905,37.51 4.7621905,50 c 0,12.49 5.0633898,23.8 13.2497735,31.99 8.186384,8.18 19.496061,13.25 31.988336,13.25 12.492275,0 23.801952,-5.07 31.988336,-13.25 C 90.17502,73.8 95.23841,62.49 95.23841,50 c 0,-12.49 -5.06339,-23.8 -13.249774,-31.99 z"
     id="path2"
     inkscape:connector-curvature="0"
     style="fill-rule:nonzero;stroke-width:1" />
</svg>
