<?xml version="1.0" encoding="UTF-8" standalone="no"?>
<svg
   xmlns:dc="http://purl.org/dc/elements/1.1/"
   xmlns:cc="http://creativecommons.org/ns#"
   xmlns:rdf="http://www.w3.org/1999/02/22-rdf-syntax-ns#"
   xmlns:svg="http://www.w3.org/2000/svg"
   xmlns="http://www.w3.org/2000/svg"
   xmlns:xlink="http://www.w3.org/1999/xlink"
   xmlns:sodipodi="http://sodipodi.sourceforge.net/DTD/sodipodi-0.dtd"
   xmlns:inkscape="http://www.inkscape.org/namespaces/inkscape"
   width="175"
   height="25"
   viewBox="0 0 175 25"
   version="1.1"
   id="svg30"
   sodipodi:docname="localcoinswap.svg"
   inkscape:version="0.92.2 (5c3e80d, 2017-08-06)">
  <metadata
     id="metadata34">
    <rdf:RDF>
      <cc:Work
         rdf:about="">
        <dc:format>image/svg+xml</dc:format>
        <dc:type
           rdf:resource="http://purl.org/dc/dcmitype/StillImage" />
        <dc:title>logo mark</dc:title>
      </cc:Work>
    </rdf:RDF>
  </metadata>
  <sodipodi:namedview
     pagecolor="#ffffff"
     bordercolor="#666666"
     borderopacity="1"
     objecttolerance="10"
     gridtolerance="10"
     guidetolerance="10"
     inkscape:pageopacity="0"
     inkscape:pageshadow="2"
     inkscape:window-width="1366"
     inkscape:window-height="705"
     id="namedview32"
     showgrid="false"
     inkscape:zoom="3.3444445"
     inkscape:cx="51.397807"
     inkscape:cy="29.596701"
     inkscape:window-x="-8"
     inkscape:window-y="-8"
     inkscape:window-maximized="1"
     inkscape:current-layer="svg30" />
  <!-- Generator: Sketch 51.2 (57519) - http://www.bohemiancoding.com/sketch -->
  <title
     id="title2">logo mark</title>
  <desc
     id="desc4">Created with Sketch.</desc>
  <defs
     id="defs8">
    <path
       d="M 25.072732,3.756454 C 25.609803,2.9115703 27.52655,-0.56147568 23.354364,0.12005946 20.648194,0.56214324 15.675731,3.6587324 12.936455,3.6537513 10.230679,3.648873 5.3300493,0.57267027 2.6594004,0.12005946 1.7145693,-0.04005405 -1.5638975,0.10357568 0.91064137,3.6656135 3.2920835,7.0936243 10.43636,17.377708 10.43636,17.377708 c 0,0 2.474589,3.562449 4.979519,0.02337 0,0 7.41069,-10.1112352 9.656853,-13.644619"
       id="path-1"
       inkscape:connector-curvature="0" />
    <path
       d="m 25.087533,15.243546 c 0.53712,0.844884 2.453867,4.31793 -1.718368,3.636395 C 20.662994,18.437857 15.690531,15.341268 12.951306,15.346249 10.24548,15.351127 5.3448501,18.42733 2.6742011,18.879941 1.72937,19.040054 -1.5490968,18.896424 0.92549146,15.334387 3.3068842,11.906376 10.451161,1.6222919 10.451161,1.6222919 c 0,0 2.474638,-3.5624487 4.979568,-0.023365 0,0 7.41069,10.1112351 9.656804,13.6446191"
       id="path-3"
       inkscape:connector-curvature="0" />
  </defs>
  <g
     id="g876"
     transform="translate(-0.11006009,-0.24820197)">
    <g
       transform="matrix(0.87623943,0,0,0.87623943,1.9939798,4.4239273)"
       style="fill:none;fill-rule:evenodd;stroke:none;stroke-width:1.1412406"
       id="Design">
      <g
         style="stroke-width:1.1412406"
         transform="translate(-250,-25)"
         id="Platform---Home---V8">
        <g
           style="stroke-width:1.1412406"
           id="nav_bar">
          <g
             style="stroke-width:1.1412406"
             transform="translate(250,25)"
             id="logo">
            <g
               style="stroke-width:1.1412406"
               id="logo-mark">
              <g
                 style="stroke-width:1.1412406"
                 transform="translate(19)"
                 id="Group-3">
                <path
                   style="fill:#ede8d8;stroke-width:1.1412406"
                   inkscape:connector-curvature="0"
                   id="Fill-1"
                   d="M 25.091578,3.7370253 C 25.629157,2.889283 27.547721,-0.5955131 23.371583,0.08832784 20.662848,0.53190731 15.685676,3.6389731 12.943806,3.6339751 10.235467,3.6290802 5.3301946,0.54246995 2.657016,0.08832784 1.7112899,-0.07232737 -1.5702824,0.07178829 0.90660049,3.6458774 3.2902984,7.0854861 10.441343,17.404364 10.441343,17.404364 c 0,0 2.476932,3.574501 4.984234,0.02344 0,0 7.417711,-10.1454446 9.666001,-13.6907827" />
                <g
                   style="stroke-width:1.1412406"
                   id="Group-4">
                  <mask
                     fill="white"
                     id="mask-2">
                    <use
                       height="100%"
                       width="100%"
                       y="0"
                       x="0"
                       id="use11"
                       xlink:href="#path-1" />
                  </mask>
                  <g
                     style="stroke-width:1.1412406"
                     id="Clip-3" />
                  <path
                     style="fill:#c0bdaa;stroke-width:1.1412406"
                     inkscape:connector-curvature="0"
                     mask="url(#mask-2)"
                     id="Fill-2"
                     d="m 12.9926,3.6561135 c 0,0 9.093882,3.8619297 11.695806,0.7023325 C 25.753765,3.0648027 26.045438,3.7814108 26.788683,2.4573162 28.937457,-1.3704649 26.63441,1.2656054 26.63441,1.2656054 L 24.926452,-1.2951838 16.44759,-0.42744865 12.442011,1.9110919 12.9926,3.6561135" />
                </g>
              </g>
              <path
                 style="fill:#c0bdaa;stroke-width:1.1412406"
                 inkscape:connector-curvature="0"
                 id="Fill-5"
                 d="m 25.091542,15.262975 c 0.537628,0.847742 2.45619,4.332538 -1.719995,3.648697 C 20.662815,18.468093 15.685645,15.361027 12.943827,15.366025 10.23544,15.37092 5.3301714,18.45753 2.6569945,18.911672 1.7112691,19.072327 -1.570301,18.928212 0.90662958,15.354123 3.2902765,11.914514 10.441316,1.5956364 10.441316,1.5956364 c 0,0 2.47698,-3.5745013 4.984281,-0.023444 0,0 7.417705,10.1454446 9.665945,13.6907826" />
              <g
                 style="stroke-width:1.1412406"
                 id="Group-8">
                <mask
                   fill="white"
                   id="mask-4">
                  <use
                     height="100%"
                     width="100%"
                     y="0"
                     x="0"
                     id="use19"
                     xlink:href="#path-3" />
                </mask>
                <g
                   style="stroke-width:1.1412406"
                   id="Clip-7" />
                <path
                   style="fill:#f6f2e8;stroke-width:1.1412406"
                   inkscape:connector-curvature="0"
                   mask="url(#mask-4)"
                   id="Fill-6"
                   d="m 13.0074,15.343886 c 0,0 9.093883,-3.861929 11.695807,-0.702332 1.065359,1.293643 1.357032,0.577035 2.100277,1.90113 2.148675,3.827781 -0.154273,1.191711 -0.154273,1.191711 l -1.707959,2.560789 -8.478861,-0.867735 -4.005579,-2.338541 0.550588,-1.745022" />
              </g>
            </g>
          </g>
        </g>
      </g>
    </g>
    <text
       id="text839"
       y="17.040874"
       x="108.98615"
       style="font-style:normal;font-variant:normal;font-weight:bold;font-stretch:normal;font-size:15.36956787px;line-height:125%;font-family:sans-serif;-inkscape-font-specification:'sans-serif, Bold';font-variant-ligatures:normal;font-variant-caps:normal;font-variant-numeric:normal;font-feature-settings:normal;text-align:center;letter-spacing:0px;word-spacing:0px;writing-mode:lr-tb;text-anchor:middle;fill:#c0bdaa;fill-opacity:1;stroke:none;stroke-width:0.99999994px;stroke-linecap:butt;stroke-linejoin:miter;stroke-opacity:1"
       xml:space="preserve"><tspan
         style="font-style:normal;font-variant:normal;font-weight:bold;font-stretch:normal;font-size:15.36956787px;font-family:sans-serif;-inkscape-font-specification:'sans-serif, Bold';font-variant-ligatures:normal;font-variant-caps:normal;font-variant-numeric:normal;font-feature-settings:normal;text-align:center;writing-mode:lr-tb;text-anchor:middle;stroke-width:0.99999994px"
         y="17.040874"
         x="108.98615"
         id="tspan837"
         sodipodi:role="line">LocalCoinSwap</tspan></text>
  </g>
</svg>
