<?xml version="1.0" encoding="utf-8"?>
<!-- Svg Vector Icons : http://www.onlinewebfonts.com/icon -->
<!DOCTYPE svg PUBLIC "-//W3C//DTD SVG 1.1//EN" "http://www.w3.org/Graphics/SVG/1.1/DTD/svg11.dtd">
<svg version="1.1" xmlns="http://www.w3.org/2000/svg" xmlns:xlink="http://www.w3.org/1999/xlink" x="0px" y="0px" viewBox="0 0 1000 1000" enable-background="new 0 0 1000 1000" xml:space="preserve">
<metadata> Svg Vector Icons : http://www.onlinewebfonts.com/icon </metadata>
<g><g><path d="M545.3,520.5l59.5,59.5l-59.5,59.5v-30.2h-150v-58.5h150V520.5z M454.7,418.6l-59.5,59.6l59.5,59.5v-30.3h150v-58.5h-150V418.6z M205.5,514.3c-3.9-2.5-10.1-4.4-18.7-6.1l-19.8-3.6l-6.1,32.9c-0.7,4.7-1,7.5-1,8.4c0.1,1,0.6,1.8,1.4,2.4c0.8,0.6,3,1.3,6.8,1.9l11.1,2.1c6.4,1.2,11.9,1.6,16.3,1.2c4.5-0.5,8.6-2.3,12.3-5.4c3.6-3.2,6-7.4,7-12.8c0.7-4.5,0.5-8.4-1-12C212.2,519.7,209.5,516.6,205.5,514.3z M214.8,453.9c-3.5-1.8-10.1-3.7-19.9-5.6l-16.6-3.1l-6.9,37.1l16.6,3.2c8.8,1.6,15.4,2.1,19.8,1.4c4.5-0.7,8-2.4,10.6-4.9c2.6-2.6,4.3-5.8,5-9.6c0.8-4,0.5-7.6-1-10.8C221,458.4,218.4,455.8,214.8,453.9z M362.6,500c0,97.4-78.9,176.3-176.3,176.3C89,676.3,10,597.4,10,500c0-97.3,78.9-176.3,176.3-176.3C283.7,323.7,362.6,402.7,362.6,500z M258.9,453.4c-3-6.5-8-12-15-16.5c-2.7-1.8-6-3.3-9.7-4.8l5-26.8l-25.8-4.8l-4.7,25l-16.6-3.1l4.7-25.1l-25.8-4.9l-4.7,25.2l-39.3-7.4l-3.9,21l6,1.2c4,0.6,6.7,1.6,8,2.6c1.3,1,2.1,2.1,2.4,3.5c0.4,1.3,0.2,4.2-0.6,8.7L123,532.1c-0.8,4.5-1.6,7.3-2.4,8.4c-0.9,1.2-2,1.9-3.6,2.4c-1.5,0.4-4.3,0.3-8.3-0.5l-6.1-1.1l-3.9,21l39.3,7.3l-4.6,25.1l25.7,4.9l4.7-25.1l14.6,2.8c0.7,0.2,1.3,0.2,2,0.3l-4.7,25.1l25.8,4.8l5.1-27.1c4.4-0.1,8.4-0.5,11.9-1.1c9.5-1.9,17.4-5.9,23.6-11.8c6.1-5.8,10-12.8,11.5-20.9c1.3-6.7,0.8-13.1-1.3-19.2c-2.2-6.1-5.8-11.2-10.6-15.3c-3.4-2.8-8.4-5.9-15.2-9c7.2-1.1,13-2.8,17.6-5.6c4.7-2.8,8.6-6.1,11.5-10.2c3-4.1,5-8.7,6-13.7C262.6,466.7,261.8,459.9,258.9,453.4z M990,500c0,97.4-78.9,176.3-176.3,176.3c-97.4,0-176.3-78.8-176.3-176.3c0-97.3,78.9-176.3,176.3-176.3C911,323.6,990,402.7,990,500z M879.4,539c0-26.9-14.4-43.3-49.8-55.8c-25.4-9.5-35.8-15.8-35.8-25.6c0-8.4,6.2-16.7,25.6-16.7c21.5,0,35.2,6.9,43,10.2l8.6-33.7c-9.9-4.8-23.3-9-43.2-9.9v-26.3h-29.2v28.4c-31.9,6.2-50.4,26.8-50.4,53.1c0,28.9,21.8,43.8,53.7,54.6c22.1,7.4,31.6,14.6,31.6,25.9c0,11.9-11.6,18.5-28.5,18.5c-19.5,0-37.1-6.3-49.6-13.1l-8.9,34.9c11.3,6.5,30.7,11.9,50.7,12.9v28.3h29.3v-30.3C860.5,588.2,879.4,565.5,879.4,539z"/></g><g></g><g></g><g></g><g></g><g></g><g></g><g></g><g></g><g></g><g></g><g></g><g></g><g></g><g></g><g></g></g>
</svg>