<?xml version="1.0" standalone="no"?>
<!DOCTYPE svg PUBLIC "-//W3C//DTD SVG 20010904//EN"
 "http://www.w3.org/TR/2001/REC-SVG-20010904/DTD/svg10.dtd">
<svg version="1.0" xmlns="http://www.w3.org/2000/svg"
 width="700.000000pt" height="700.000000pt" viewBox="0 0 700.000000 700.000000"
 preserveAspectRatio="xMidYMid meet">
<metadata>
Created by potrace 1.11, written by Peter Selinger 2001-2013
</metadata>
<g transform="translate(0.000000,700.000000) scale(0.100000,-0.100000)"
fill="#000000" stroke="none">
<path d="M2270 6470 l0 -530 -82 -1 c-46 -1 -338 -1 -650 0 l-568 1 0 -345 0
-345 263 -1 c278 -1 299 -2 363 -23 98 -33 164 -100 198 -201 16 -45 17 -167
17 -1510 0 -804 -3 -1475 -7 -1491 -22 -91 -89 -157 -172 -170 -26 -4 -154 -7
-285 -7 -131 0 -240 -4 -243 -8 -4 -7 -55 -293 -78 -439 -6 -36 -11 -68 -22
-130 -3 -19 -8 -48 -11 -65 -3 -16 -8 -50 -13 -75 -5 -25 -7 -47 -4 -49 2 -2
282 -5 621 -6 340 -2 630 -3 646 -4 l27 -1 0 -535 0 -535 324 0 325 0 0 483
c0 265 0 503 1 529 l0 48 255 -3 255 -2 0 -527 0 -528 325 0 325 0 2 537 3
537 40 2 c79 4 221 14 265 20 271 32 272 32 425 64 86 18 289 81 371 115 259
107 426 226 555 396 32 43 59 80 59 83 0 3 12 22 26 43 46 69 132 279 148 363
2 14 9 45 15 70 5 25 13 68 17 95 3 28 8 59 11 70 2 11 6 97 8 190 6 260 -29
445 -114 613 -121 237 -398 446 -706 532 -44 12 -87 24 -95 27 -9 2 0 12 26
27 293 166 458 403 504 726 11 77 14 260 5 340 -31 273 -122 476 -284 638 -96
96 -169 146 -324 222 -187 91 -355 142 -607 184 -118 20 -149 25 -227 32 -37
4 -75 8 -83 10 -8 1 -21 3 -27 3 -10 1 -13 114 -13 531 l0 530 -325 0 -325 0
0 -515 0 -515 -102 -1 c-57 0 -172 -2 -255 -4 -115 -3 -153 -1 -154 8 0 7 0
240 0 520 l0 507 -325 0 -324 0 0 -530z m1350 -1276 c248 -27 404 -70 545
-149 129 -72 225 -202 260 -350 17 -71 14 -254 -5 -300 -6 -16 -13 -38 -15
-48 -13 -62 -106 -170 -203 -235 -114 -78 -182 -105 -372 -146 -181 -39 -264
-47 -592 -53 l-308 -6 0 645 c0 355 2 647 4 649 11 10 581 5 686 -7z m-30
-1929 c80 -3 156 -8 170 -9 14 -2 55 -7 91 -10 36 -4 108 -16 160 -27 52 -11
104 -22 116 -25 51 -10 204 -68 278 -105 144 -71 264 -210 309 -359 25 -82 31
-212 13 -296 -66 -308 -341 -485 -872 -559 -102 -14 -144 -18 -340 -30 -70 -4
-420 -5 -525 -2 l-55 2 -3 704 c-1 492 1 707 9 711 5 4 117 8 247 9 130 1 238
4 241 6 2 3 7 3 10 1 3 -2 71 -7 151 -11z"/>
</g>
</svg>
