<?xml version="1.0" ?><!DOCTYPE svg  PUBLIC '-//W3C//DTD SVG 1.1//EN'  'http://www.w3.org/Graphics/SVG/1.1/DTD/svg11.dtd'><svg enable-background="new 0 0 26 26" id="Слой_1" version="1.1" viewBox="0 0 26 26" xml:space="preserve" xmlns="http://www.w3.org/2000/svg" xmlns:xlink="http://www.w3.org/1999/xlink"><g><path d="M23.4335938,8.8789063h-2.2537842l-0.6456299-3.6582031   c-0.1484375-0.8496094-0.9677734-1.4169922-1.8115234-1.2705078L2.2939453,6.8476563   c-0.8486328,0.1494141-1.4179688,0.9628906-1.2675781,1.8125L2.7783203,18.59375   c0.0722656,0.4111328,0.2998047,0.7705078,0.6416016,1.0107422c0.2666016,0.1865234,0.5761719,0.2841797,0.8945313,0.2841797   c0.0917969,0,0.1835938-0.0078125,0.2753906-0.0244141l0.5986328-0.1057129v0.7512207   c0,0.8623047,0.7011719,1.5634766,1.5634766,1.5634766h16.6816406c0.8623047,0,1.5644531-0.7011719,1.5644531-1.5634766V10.4423828   C24.9980469,9.5800781,24.2958984,8.8789063,23.4335938,8.8789063z M19.0576172,5.4804688l0.2866821,1.625L9.284668,8.8789063   H6.7519531c-0.5310669,0-0.9995117,0.2671509-1.2822266,0.6729736L2.7893677,10.024292l-0.0032349-0.0184326L2.5546875,8.3242188   L19.0576172,5.4804688z M4.2548828,18.3339844l-1.008606-5.7189941l1.9421997-0.3425293v5.9368286L4.2548828,18.3339844z    M23.4980469,20.5097656c0,0.0351563-0.0292969,0.0634766-0.0644531,0.0634766L6.6884766,20.5097656v-8.4394531   l0.0634766-1.6914063l16.7460938,0.0634766V20.5097656z" fill="#1D1D1B"/><path d="M9.0332031,16.8818359h1.2353516c0.7431641,0,1.3476563-0.6044922,1.3476563-1.3476563v-1.2353516   c0-0.7421875-0.6044922-1.3466797-1.3476563-1.3466797H9.0332031c-0.7421875,0-1.3466797,0.6044922-1.3466797,1.3466797v1.2353516   C7.6865234,16.2773438,8.2910156,16.8818359,9.0332031,16.8818359z M8.6865234,14.2988281   c0-0.1914063,0.1552734-0.3466797,0.3466797-0.3466797h1.2353516c0.1914063,0,0.3476563,0.1552734,0.3476563,0.3466797v1.2353516   c0,0.1914063-0.15625,0.3476563-0.3476563,0.3476563H9.0332031c-0.1914063,0-0.3466797-0.15625-0.3466797-0.3476563V14.2988281z" fill="#1D1D1B"/><path d="M18.7871094,17.4990234c-0.1953125,0.1953125-0.1953125,0.5117188,0,0.7070313   c0.0976563,0.0976563,0.2255859,0.1464844,0.3535156,0.1464844s0.2558594-0.0488281,0.3535156-0.1464844   C21,16.7011719,21,14.2509766,19.4941406,12.7460938c-0.1953125-0.1953125-0.5117188-0.1953125-0.7070313,0   s-0.1953125,0.5117188,0,0.7070313C19.9023438,14.5683594,19.9023438,16.3837891,18.7871094,17.4990234z" fill="#1D1D1B"/><path d="M17.5986328,16.9052734c-0.1953125,0.1953125-0.1953125,0.5117188,0,0.7070313   c0.0976563,0.0976563,0.2255859,0.1464844,0.3535156,0.1464844s0.2558594-0.0488281,0.3535156-0.1464844   c1.1777344-1.1777344,1.1777344-3.0947266,0-4.2724609c-0.1953125-0.1953125-0.5117188-0.1953125-0.7070313,0   s-0.1953125,0.5117188,0,0.7070313C18.3867188,14.8349609,18.3867188,16.1171875,17.5986328,16.9052734z" fill="#1D1D1B"/><path d="M16.4101563,17.0185547c0.0976563,0.0976563,0.2255859,0.1464844,0.3535156,0.1464844   s0.2558594-0.0488281,0.3535156-0.1464844c0.8496094-0.8505859,0.8496094-2.234375,0-3.0839844   c-0.1953125-0.1953125-0.5117188-0.1953125-0.7070313,0s-0.1953125,0.5117188,0,0.7070313   c0.4599609,0.4599609,0.4599609,1.2089844,0,1.6699219C16.2148438,16.5068359,16.2148438,16.8242188,16.4101563,17.0185547z" fill="#1D1D1B"/><path d="M21.0595703,15.4765625c0,0.9873047-0.3847656,1.9169922-1.0849609,2.6171875   c-0.1953125,0.1953125-0.1953125,0.5117188,0,0.7070313c0.0976563,0.0976563,0.2255859,0.1464844,0.3535156,0.1464844   s0.2558594-0.0488281,0.3535156-0.1464844c0.8886719-0.8886719,1.3779297-2.0693359,1.3779297-3.3242188   c0-1.2558594-0.4892578-2.4355469-1.3779297-3.3242188c-0.1953125-0.1953125-0.5117188-0.1953125-0.7070313,0   s-0.1953125,0.5117188,0,0.7070313C20.6748047,13.5585938,21.0595703,14.4882813,21.0595703,15.4765625z" fill="#1D1D1B"/><path d="M8.1865234,19.6376953h2.2099609c0.2763672,0,0.5-0.2236328,0.5-0.5s-0.2236328-0.5-0.5-0.5H8.1865234   c-0.2763672,0-0.5,0.2236328-0.5,0.5S7.9101563,19.6376953,8.1865234,19.6376953z" fill="#1D1D1B"/><path d="M11.9853516,19.6376953h2.9599609c0.2763672,0,0.5-0.2236328,0.5-0.5s-0.2236328-0.5-0.5-0.5h-2.9599609   c-0.2763672,0-0.5,0.2236328-0.5,0.5S11.7089844,19.6376953,11.9853516,19.6376953z" fill="#1D1D1B"/></g></svg>