<?xml version="1.0" encoding="UTF-8" standalone="no"?>
<svg
   xmlns:dc="http://purl.org/dc/elements/1.1/"
   xmlns:cc="http://creativecommons.org/ns#"
   xmlns:rdf="http://www.w3.org/1999/02/22-rdf-syntax-ns#"
   xmlns:svg="http://www.w3.org/2000/svg"
   xmlns="http://www.w3.org/2000/svg"
   xmlns:sodipodi="http://sodipodi.sourceforge.net/DTD/sodipodi-0.dtd"
   xmlns:inkscape="http://www.inkscape.org/namespaces/inkscape"
   viewBox="0 0 100 100"
   version="1.1"
   id="svg4"
   sodipodi:docname="number-one.svg"
   width="100"
   height="100"
   style="clip-rule:evenodd;fill-rule:evenodd;image-rendering:optimizeQuality;shape-rendering:geometricPrecision;text-rendering:geometricPrecision"
   inkscape:version="0.92.2 (5c3e80d, 2017-08-06)">
  <metadata
     id="metadata10">
    <rdf:RDF>
      <cc:Work
         rdf:about="">
        <dc:format>image/svg+xml</dc:format>
        <dc:type
           rdf:resource="http://purl.org/dc/dcmitype/StillImage" />
        <dc:title></dc:title>
      </cc:Work>
    </rdf:RDF>
  </metadata>
  <defs
     id="defs8" />
  <sodipodi:namedview
     pagecolor="#ffffff"
     bordercolor="#666666"
     borderopacity="1"
     objecttolerance="10"
     gridtolerance="10"
     guidetolerance="10"
     inkscape:pageopacity="0"
     inkscape:pageshadow="2"
     inkscape:window-width="1366"
     inkscape:window-height="705"
     id="namedview6"
     showgrid="false"
     fit-margin-top="0"
     fit-margin-left="0"
     fit-margin-right="0"
     fit-margin-bottom="0"
     inkscape:zoom="0.01"
     inkscape:cx="196766.5"
     inkscape:cy="150817.5"
     inkscape:window-x="-8"
     inkscape:window-y="-8"
     inkscape:window-maximized="1"
     inkscape:current-layer="svg4" />
  <path
     d="M 50,0 C 63.806572,0 76.306647,5.6 85.355229,14.64 94.403511,23.69 100,36.19 100,50 100,63.81 94.403511,76.31 85.355229,85.36 76.306947,94.4 63.806872,100 50,100 36.193428,100 23.693353,94.4 14.644771,85.36 5.5964888,76.31 0,63.81 0,50 0,36.19 5.5964888,23.69 14.644771,14.64 23.693053,5.6 36.193128,0 50,0 Z m 11.519377,29.55 v 40.9 H 50.225 V 43.69 c -1.826097,1.38 -3.596393,2.5 -5.30999,3.35 -1.713896,0.85 -3.858592,1.68 -6.433787,2.45 v -9.1 c 3.802192,-1.23 6.761687,-2.71 8.859582,-4.44 2.107196,-1.73 3.755393,-3.87 4.94489,-6.4 h 9.233982 z M 81.988636,18.01 C 73.802252,9.82 62.492575,4.76 50.0003,4.76 37.508025,4.76 26.198348,9.82 18.011964,18.01 9.8255803,26.2 4.7621905,37.51 4.7621905,50 c 0,12.49 5.0633898,23.8 13.2497735,31.99 8.186384,8.18 19.496061,13.25 31.988336,13.25 12.492275,0 23.801952,-5.07 31.988336,-13.25 C 90.17502,73.8 95.23841,62.49 95.23841,50 c 0,-12.49 -5.06339,-23.8 -13.249774,-31.99 z"
     id="path2"
     inkscape:connector-curvature="0"
     style="fill-rule:nonzero;stroke-width:1" />
</svg>
