<?xml version="1.0" encoding="UTF-8" standalone="no"?>
<svg
   xmlns:dc="http://purl.org/dc/elements/1.1/"
   xmlns:cc="http://creativecommons.org/ns#"
   xmlns:rdf="http://www.w3.org/1999/02/22-rdf-syntax-ns#"
   xmlns:svg="http://www.w3.org/2000/svg"
   xmlns="http://www.w3.org/2000/svg"
   xmlns:sodipodi="http://sodipodi.sourceforge.net/DTD/sodipodi-0.dtd"
   xmlns:inkscape="http://www.inkscape.org/namespaces/inkscape"
   enable-background="new 0 0 65 65"
   height="320"
   version="1.1"
   viewBox="0 0 520 320"
   width="520"
   xml:space="preserve"
   id="svg62"
   sodipodi:docname="bank-transfer.svg"
   inkscape:version="0.92.2 (5c3e80d, 2017-08-06)"><metadata
     id="metadata68"><rdf:RDF><cc:Work
         rdf:about=""><dc:format>image/svg+xml</dc:format><dc:type
           rdf:resource="http://purl.org/dc/dcmitype/StillImage" /><dc:title></dc:title></cc:Work></rdf:RDF></metadata><defs
     id="defs66" /><sodipodi:namedview
     pagecolor="#ffffff"
     bordercolor="#666666"
     borderopacity="1"
     objecttolerance="10"
     gridtolerance="10"
     guidetolerance="10"
     inkscape:pageopacity="0"
     inkscape:pageshadow="2"
     inkscape:window-width="1366"
     inkscape:window-height="705"
     id="namedview64"
     showgrid="false"
     inkscape:zoom="0.45384615"
     inkscape:cx="362.4891"
     inkscape:cy="51.549386"
     inkscape:window-x="-8"
     inkscape:window-y="-8"
     inkscape:window-maximized="1"
     inkscape:current-layer="svg62" /><g
     id="Layer_2"
     transform="matrix(5.9258642,0,0,5.9258642,67.410835,-61.153335)"
     style="stroke-width:0.16875176"><g
       id="g4"
       style="stroke-width:0.16875176"><path
         d="M 57,64 H 8 C 7.448,64 7,63.553 7,63 v -6 c 0,-0.553 0.448,-1 1,-1 h 49 c 0.552,0 1,0.447 1,1 v 6 c 0,0.553 -0.448,1 -1,1 z M 9,62 H 56 V 58 H 9 Z"
         id="path2"
         inkscape:connector-curvature="0"
         style="fill:#92278f;stroke-width:0.16875176" /></g><g
       id="g8"
       style="stroke-width:0.16875176"><path
         d="M 54,58 H 11 c -0.552,0 -1,-0.447 -1,-1 v -4 c 0,-0.553 0.448,-1 1,-1 h 43 c 0.552,0 1,0.447 1,1 v 4 c 0,0.553 -0.448,1 -1,1 z M 12,56 H 53 V 54 H 12 Z"
         id="path6"
         inkscape:connector-curvature="0"
         style="fill:#92278f;stroke-width:0.16875176" /></g><g
       id="g12"
       style="stroke-width:0.16875176"><path
         d="m 23.5,53 h -10 C 13.224,53 13,52.776 13,52.5 v -3 C 13,49.224 13.224,49 13.5,49 h 10 c 0.276,0 0.5,0.224 0.5,0.5 v 3 C 24,52.776 23.776,53 23.5,53 Z M 14,52 h 9 v -2 h -9 z"
         id="path10"
         inkscape:connector-curvature="0"
         style="fill:#92278f;stroke-width:0.16875176" /></g><g
       id="g16"
       style="stroke-width:0.16875176"><path
         d="m 23.5,35 h -10 C 13.224,35 13,34.776 13,34.5 v -4 C 13,30.224 13.224,30 13.5,30 h 10 c 0.276,0 0.5,0.224 0.5,0.5 v 4 C 24,34.776 23.776,35 23.5,35 Z M 14,34 h 9 v -3 h -9 z"
         id="path14"
         inkscape:connector-curvature="0"
         style="fill:#92278f;stroke-width:0.16875176" /></g><g
       id="g20"
       style="stroke-width:0.16875176"><path
         d="m 37.5,35 h -10 C 27.224,35 27,34.776 27,34.5 v -4 C 27,30.224 27.224,30 27.5,30 h 10 c 0.276,0 0.5,0.224 0.5,0.5 v 4 C 38,34.776 37.776,35 37.5,35 Z M 28,34 h 9 v -3 h -9 z"
         id="path18"
         inkscape:connector-curvature="0"
         style="fill:#92278f;stroke-width:0.16875176" /></g><g
       id="g24"
       style="stroke-width:0.16875176"><path
         d="m 51.5,35 h -10 C 41.224,35 41,34.776 41,34.5 v -4 C 41,30.224 41.224,30 41.5,30 h 10 c 0.276,0 0.5,0.224 0.5,0.5 v 4 C 52,34.776 51.776,35 51.5,35 Z M 42,34 h 9 v -3 h -9 z"
         id="path22"
         inkscape:connector-curvature="0"
         style="fill:#92278f;stroke-width:0.16875176" /></g><g
       id="g28"
       style="stroke-width:0.16875176"><path
         d="m 51.5,53 h -10 C 41.224,53 41,52.776 41,52.5 v -3 C 41,49.224 41.224,49 41.5,49 h 10 c 0.276,0 0.5,0.224 0.5,0.5 v 3 C 52,52.776 51.776,53 51.5,53 Z M 42,52 h 9 v -2 h -9 z"
         id="path26"
         inkscape:connector-curvature="0"
         style="fill:#92278f;stroke-width:0.16875176" /></g><g
       id="g32"
       style="stroke-width:0.16875176"><path
         d="m 37.5,53 h -10 C 27.224,53 27,52.776 27,52.5 v -3 C 27,49.224 27.224,49 27.5,49 h 10 c 0.276,0 0.5,0.224 0.5,0.5 v 3 C 38,52.776 37.776,53 37.5,53 Z M 28,52 h 9 v -2 h -9 z"
         id="path30"
         inkscape:connector-curvature="0"
         style="fill:#92278f;stroke-width:0.16875176" /></g><g
       id="g36"
       style="stroke-width:0.16875176"><path
         d="M 57,32 H 8 C 7.575,32 7.197,31.731 7.056,31.331 6.915,30.93 7.044,30.483 7.376,30.219 l 25.044,-20 c 0.371,-0.298 0.9,-0.292 1.265,0.014 l 23.956,20 c 0.323,0.27 0.442,0.713 0.299,1.108 C 57.797,31.736 57.421,32 57,32 Z M 10.855,30 H 54.242 L 33.03,12.291 Z"
         id="path34"
         inkscape:connector-curvature="0"
         style="fill:#92278f;stroke-width:0.16875176" /></g><g
       id="g40"
       style="stroke-width:0.16875176"><path
         d="m 33,29.5 c -3.584,0 -6.5,-2.916 -6.5,-6.5 0,-3.584 2.916,-6.5 6.5,-6.5 3.584,0 6.5,2.916 6.5,6.5 0,3.584 -2.916,6.5 -6.5,6.5 z m 0,-12 c -3.033,0 -5.5,2.468 -5.5,5.5 0,3.032 2.467,5.5 5.5,5.5 3.033,0 5.5,-2.468 5.5,-5.5 0,-3.032 -2.467,-5.5 -5.5,-5.5 z"
         id="path38"
         inkscape:connector-curvature="0"
         style="fill:#ffbe06;stroke-width:0.16875176" /></g><g
       id="g44"
       style="stroke-width:0.16875176"><path
         d="m 32.443,26.946 v -1.067 c -0.693,-0.021 -1.386,-0.22 -1.782,-0.484 l 0.297,-1.033 c 0.429,0.252 1.045,0.483 1.716,0.483 0.693,0 1.166,-0.341 1.166,-0.869 0,-0.495 -0.385,-0.813 -1.199,-1.11 -1.155,-0.419 -1.903,-0.947 -1.903,-1.971 0,-0.945 0.66,-1.672 1.771,-1.869 v -1.078 h 0.902 v 1.023 c 0.693,0.021 1.166,0.187 1.518,0.362 l -0.297,1.013 c -0.264,-0.121 -0.748,-0.375 -1.497,-0.375 -0.77,0 -1.045,0.396 -1.045,0.771 0,0.451 0.396,0.704 1.331,1.078 1.232,0.462 1.782,1.056 1.782,2.035 0,0.936 -0.649,1.761 -1.859,1.958 v 1.134 h -0.901 z"
         id="path42"
         inkscape:connector-curvature="0"
         style="fill:#00a651;stroke-width:0.16875176" /></g><g
       id="g50"
       style="stroke-width:0.16875176"><rect
         height="15"
         width="2"
         x="43"
         y="34"
         id="rect46"
         style="fill:#92278f;stroke-width:0.16875176" /><rect
         height="15"
         width="2"
         x="48"
         y="34"
         id="rect48"
         style="fill:#92278f;stroke-width:0.16875176" /></g><g
       id="g56"
       style="stroke-width:0.16875176"><rect
         height="15"
         width="2"
         x="29"
         y="34"
         id="rect52"
         style="fill:#92278f;stroke-width:0.16875176" /><rect
         height="15"
         width="2"
         x="34"
         y="34"
         id="rect54"
         style="fill:#92278f;stroke-width:0.16875176" /></g><polygon
       points="15,50 22,50 22,34 20,34 20,49 17,49 17,34 15,34 "
       id="polygon58"
       style="fill:#92278f;stroke-width:0.16875176" /></g><g
     id="Layer_3"
     transform="translate(0,255)" /></svg>