<?xml version="1.0" encoding="UTF-8" standalone="no"?>
<svg
   xmlns:dc="http://purl.org/dc/elements/1.1/"
   xmlns:cc="http://creativecommons.org/ns#"
   xmlns:rdf="http://www.w3.org/1999/02/22-rdf-syntax-ns#"
   xmlns:svg="http://www.w3.org/2000/svg"
   xmlns="http://www.w3.org/2000/svg"
   xmlns:sodipodi="http://sodipodi.sourceforge.net/DTD/sodipodi-0.dtd"
   xmlns:inkscape="http://www.inkscape.org/namespaces/inkscape"
   enable-background="new 0 0 512 512"
   height="320"
   id="Layer_1"
   version="1.1"
   viewBox="0 0 520 320"
   width="520"
   xml:space="preserve"
   sodipodi:docname="bank-trasfer-black.svg"
   inkscape:version="0.92.2 (5c3e80d, 2017-08-06)"><metadata
     id="metadata27"><rdf:RDF><cc:Work
         rdf:about=""><dc:format>image/svg+xml</dc:format><dc:type
           rdf:resource="http://purl.org/dc/dcmitype/StillImage" /><dc:title></dc:title></cc:Work></rdf:RDF></metadata><defs
     id="defs25" /><sodipodi:namedview
     pagecolor="#ffffff"
     bordercolor="#666666"
     borderopacity="1"
     objecttolerance="10"
     gridtolerance="10"
     guidetolerance="10"
     inkscape:pageopacity="0"
     inkscape:pageshadow="2"
     inkscape:window-width="1366"
     inkscape:window-height="705"
     id="namedview23"
     showgrid="false"
     fit-margin-top="0"
     fit-margin-left="0"
     fit-margin-right="0"
     fit-margin-bottom="0"
     inkscape:zoom="0.4609375"
     inkscape:cx="256.217"
     inkscape:cy="159.351"
     inkscape:window-x="-8"
     inkscape:window-y="-8"
     inkscape:window-maximized="1"
     inkscape:current-layer="Layer_1" /><g
     id="g20"
     transform="matrix(1.0058054,0,0,1.0058054,2.7401238,-97.762276)"
     style="stroke-width:0.99422812"><g
       id="g18"
       style="stroke-width:0.99422812"><g
         id="g16"
         style="stroke-width:0.99422812"><path
           d="m 179.808,212.15 c 1.992,-1.177 2.99,-3.216 2.99,-6.116 0,-3.007 -0.933,-5.118 -2.799,-6.333 -1.867,-1.213 -5.5,-1.821 -10.9,-1.821 h -4.675 v 16.037 h 4.349 c 5.362,0 9.042,-0.588 11.035,-1.767 z"
           id="path2"
           inkscape:connector-curvature="0"
           style="fill:#333333;stroke-width:0.99422812" /><path
           d="m 253.305,201.849 c -0.435,-1.775 -0.997,-4.059 -1.685,-6.85 -0.471,1.957 -0.933,3.824 -1.386,5.599 -0.454,1.776 -0.916,3.479 -1.386,5.11 l -7.992,26.257 h 21.582 l -8.101,-26.257 c -0.253,-0.796 -0.597,-2.083 -1.032,-3.859 z"
           id="path4"
           inkscape:connector-curvature="0"
           style="fill:#333333;stroke-width:0.99422812" /><path
           d="m 174.609,287.322 c -0.326,-1.331 -0.747,-3.043 -1.264,-5.137 -0.354,1.468 -0.7,2.867 -1.039,4.199 -0.34,1.331 -0.687,2.609 -1.04,3.832 l -5.994,19.693 h 16.186 l -6.075,-19.693 c -0.189,-0.597 -0.448,-1.562 -0.774,-2.894 z"
           id="path6"
           inkscape:connector-curvature="0"
           style="fill:#333333;stroke-width:0.99422812" /><path
           d="M 481.641,97.198 H 29.909 c -16.638,0 -30.126,13.488 -30.126,30.126 v 257.901 c 0,16.638 13.488,30.126 30.126,30.126 h 451.732 c 16.638,0 30.126,-13.488 30.126,-30.126 V 127.324 c 0,-16.638 -13.488,-30.126 -30.126,-30.126 z M 38.769,181.912 h 88.139 v 15.772 H 38.769 Z m 0,30.617 h 88.139 v 15.772 H 38.769 Z m 0,33.399 h 88.139 v 15.773 H 38.769 Z M 88.011,286.63 H 74.638 v 45.582 H 58.37 V 286.63 H 44.998 v -14.107 h 43.013 z m 99.89,45.582 -3.017,-10.683 h -23.118 l -3.099,10.683 h -15.371 -0.815 -17.573 L 111.21,308.85 v 23.362 H 95.961 v -59.689 h 17.002 c 6.659,0 11.3,0.306 13.923,0.917 2.623,0.612 4.886,1.638 6.789,3.078 2.148,1.631 3.798,3.711 4.954,6.238 1.155,2.527 1.733,5.314 1.733,8.357 0,4.621 -1.135,8.38 -3.404,11.273 -2.271,2.896 -5.58,4.818 -9.929,5.771 l 15.728,23.256 20.314,-58.891 h 20.386 l 20.63,59.689 h -16.186 z m 16.18,-82.036 c -1.794,3.226 -4.358,5.727 -7.692,7.502 -2.718,1.45 -6.07,2.482 -10.057,3.099 -3.987,0.617 -10.511,0.925 -19.57,0.925 H 144.31 v -79.586 h 21.799 c 8.988,0 15.267,0.291 18.836,0.87 3.569,0.58 6.641,1.576 9.215,2.99 2.935,1.631 5.172,3.815 6.713,6.551 1.541,2.736 2.311,5.898 2.311,9.486 0,4.531 -1.151,8.127 -3.452,10.791 -2.302,2.664 -5.972,4.684 -11.008,6.061 5.653,0.435 10.075,2.419 13.264,5.953 3.188,3.534 4.784,8.254 4.784,14.161 -0.001,4.239 -0.897,7.972 -2.691,11.197 z m 64.058,82.036 h -15.616 l -22.546,-30.823 c -0.462,-0.626 -1.19,-1.882 -2.181,-3.771 -0.993,-1.891 -2.073,-4.111 -3.242,-6.667 0.326,2.501 0.563,4.716 0.714,6.646 0.148,1.931 0.224,3.643 0.224,5.138 v 29.478 h -15.697 v -59.689 h 15.697 l 22.547,30.7 c 0.435,0.627 1.147,1.882 2.14,3.772 0.992,1.889 2.087,4.138 3.283,6.747 -0.326,-2.473 -0.564,-4.674 -0.713,-6.604 -0.151,-1.931 -0.225,-3.643 -0.225,-5.138 v -29.478 h 15.616 v 59.689 z m -1.135,-84.754 h -30.823 l -4.132,14.243 h -21.582 l 27.453,-79.586 h 27.181 l 27.507,79.586 h -21.581 z m 47.084,80.575 c -4.158,3.846 -9.704,5.769 -16.635,5.769 -4.159,0 -7.944,-0.708 -11.355,-2.12 -3.411,-1.413 -6.692,-3.629 -9.846,-6.646 l 7.339,-12.108 c 2.419,2.746 4.804,4.798 7.155,6.156 2.351,1.359 4.695,2.039 7.033,2.039 2.174,0 3.961,-0.585 5.361,-1.753 1.399,-1.168 2.1,-2.65 2.1,-4.444 0,-1.984 -0.605,-3.513 -1.813,-4.587 -1.211,-1.074 -3.948,-2.181 -8.216,-3.323 -5.844,-1.576 -9.975,-3.629 -12.394,-6.156 -2.419,-2.527 -3.629,-5.993 -3.629,-10.396 0,-5.708 1.909,-10.362 5.729,-13.964 3.817,-3.602 8.771,-5.402 14.86,-5.402 3.289,0 6.407,0.441 9.357,1.325 2.947,0.883 5.741,2.221 8.378,4.016 l -5.097,11.701 c -1.849,-1.575 -3.745,-2.766 -5.688,-3.566 -1.943,-0.802 -3.866,-1.204 -5.77,-1.204 -1.957,0 -3.547,0.47 -4.769,1.406 -1.224,0.94 -1.835,2.141 -1.835,3.609 0,1.495 0.536,2.69 1.61,3.587 1.073,0.898 3.146,1.753 6.218,2.568 l 0.734,0.204 c 6.631,1.794 10.994,3.766 13.087,5.912 1.413,1.469 2.487,3.227 3.221,5.28 0.734,2.053 1.102,4.328 1.102,6.829 0.001,6.333 -2.079,11.42 -6.237,15.268 z M 324.22,215.575 c -1.323,-2.518 -2.765,-5.481 -4.322,-8.888 0.435,3.335 0.753,6.289 0.952,8.861 0.198,2.573 0.299,4.857 0.299,6.85 v 39.304 H 300.22 v -79.586 h 20.929 l 30.062,40.934 c 0.578,0.835 1.529,2.51 2.854,5.029 1.322,2.519 2.78,5.518 4.377,8.997 -0.435,-3.298 -0.754,-6.233 -0.952,-8.807 -0.199,-2.573 -0.299,-4.855 -0.299,-6.849 v -39.304 h 20.82 v 79.586 h -20.82 l -30.062,-41.098 c -0.618,-0.833 -1.586,-2.51 -2.909,-5.029 z m 41.81,70.035 h -20.712 v 10.355 h 19.529 v 12.803 h -19.529 v 23.443 h -15.86 v -59.689 h 36.572 z m 45.419,0 h -20.712 v 10.355 h 19.53 v 12.803 h -19.53 v 10.069 h 20.712 v 13.374 h -36.571 v -59.689 h 36.571 z m 39.712,46.602 -13.7,-23.362 v 23.362 h -15.248 v -59.689 h 17.002 c 6.659,0 11.3,0.306 13.923,0.917 2.623,0.612 4.887,1.638 6.788,3.078 2.148,1.631 3.799,3.711 4.954,6.238 1.154,2.527 1.733,5.314 1.733,8.357 0,4.621 -1.136,8.38 -3.404,11.273 -2.271,2.896 -5.579,4.818 -9.928,5.771 l 16.267,24.055 z m -8.678,-70.511 -25.931,-35.716 v 35.716 H 395.08 v -79.586 h 21.473 v 36.15 l 25.17,-36.15 h 25.278 l -29.41,38.815 31.965,40.771 z"
           id="path8"
           inkscape:connector-curvature="0"
           style="fill:#333333;stroke-width:0.99422812" /><path
           d="m 448.327,286.935 c -1.509,-1.265 -4.043,-1.896 -7.604,-1.896 h -3.263 v 15.697 h 3.018 c 3.507,0 6.068,-0.599 7.685,-1.795 1.617,-1.195 2.427,-3.07 2.427,-5.626 0,-2.99 -0.754,-5.117 -2.263,-6.38 z"
           id="path10"
           inkscape:connector-curvature="0"
           style="fill:#333333;stroke-width:0.99422812" /><path
           d="m 183.232,230.089 c -1.957,-1.322 -5.581,-1.984 -10.872,-1.984 h -7.937 v 17.341 h 7.61 c 5.146,0 8.788,-0.643 10.927,-1.93 2.139,-1.286 3.207,-3.434 3.207,-6.441 0.001,-3.334 -0.977,-5.662 -2.935,-6.986 z"
           id="path12"
           inkscape:connector-curvature="0"
           style="fill:#333333;stroke-width:0.99422812" /><path
           d="m 122.075,286.935 c -1.508,-1.265 -4.043,-1.896 -7.604,-1.896 h -3.261 v 15.697 h 3.017 c 3.506,0 6.067,-0.599 7.685,-1.795 1.618,-1.195 2.427,-3.07 2.427,-5.626 -0.001,-2.99 -0.755,-5.117 -2.264,-6.38 z"
           id="path14"
           inkscape:connector-curvature="0"
           style="fill:#333333;stroke-width:0.99422812" /></g></g></g></svg>