<?xml version="1.0" encoding="UTF-8" standalone="no"?>
<svg
   xmlns:dc="http://purl.org/dc/elements/1.1/"
   xmlns:cc="http://creativecommons.org/ns#"
   xmlns:rdf="http://www.w3.org/1999/02/22-rdf-syntax-ns#"
   xmlns:svg="http://www.w3.org/2000/svg"
   xmlns="http://www.w3.org/2000/svg"
   xmlns:sodipodi="http://sodipodi.sourceforge.net/DTD/sodipodi-0.dtd"
   xmlns:inkscape="http://www.inkscape.org/namespaces/inkscape"
   enable-background="new 0 0 40 40"
   version="1.1"
   viewBox="0 0 520 320"
   xml:space="preserve"
   id="svg60"
   sodipodi:docname="credit-card.svg"
   width="520"
   height="320"
   inkscape:version="0.92.2 (5c3e80d, 2017-08-06)"><metadata
     id="metadata66"><rdf:RDF><cc:Work
         rdf:about=""><dc:format>image/svg+xml</dc:format><dc:type
           rdf:resource="http://purl.org/dc/dcmitype/StillImage" /><dc:title></dc:title></cc:Work></rdf:RDF></metadata><defs
     id="defs64" /><sodipodi:namedview
     pagecolor="#ffffff"
     bordercolor="#666666"
     borderopacity="1"
     objecttolerance="10"
     gridtolerance="10"
     guidetolerance="10"
     inkscape:pageopacity="0"
     inkscape:pageshadow="2"
     inkscape:window-width="1366"
     inkscape:window-height="705"
     id="namedview62"
     showgrid="false"
     inkscape:zoom="0.7375"
     inkscape:cx="311.70876"
     inkscape:cy="146.09998"
     inkscape:window-x="-8"
     inkscape:window-y="-8"
     inkscape:window-maximized="1"
     inkscape:current-layer="svg60" /><g
     id="E-Com"
     transform="matrix(15.238095,0,0,15.238095,-44.7619,-144.7619)"
     style="stroke-width:0.065625"><g
       id="CVC_5_"
       style="stroke-width:0.065625" /><g
       id="Mastercard_5_"
       style="stroke-width:0.065625" /><g
       id="Visa_6_"
       style="stroke-width:0.065625"><g
         id="Visa"
         style="stroke-width:0.065625"><g
           id="g6"
           style="stroke-width:0.065625"><path
             d="M 34,9.5 H 6 c -1.1,0 -2,0.9 -2,2 v 17 c 0,1.1 0.9,2 2,2 h 28 c 1.1,0 2,-0.9 2,-2 v -17 c 0,-1.1 -0.9,-2 -2,-2 z"
             id="path4"
             inkscape:connector-curvature="0"
             style="clip-rule:evenodd;fill:#ecf0f1;fill-rule:evenodd;stroke-width:0.065625" /></g></g><g
         id="Visa_1_"
         style="stroke-width:0.065625"><g
           id="g11"
           style="stroke-width:0.065625"><path
             d="M 34,9.5 H 6 c -1.1,0 -2,0.9 -2,2 v 2 h 32 v -2 c 0,-1.1 -0.9,-2 -2,-2 z"
             id="path9"
             inkscape:connector-curvature="0"
             style="clip-rule:evenodd;fill:#34495e;fill-rule:evenodd;stroke-width:0.065625" /></g></g><g
         id="Visa_2_"
         style="stroke-width:0.065625"><g
           id="g16"
           style="stroke-width:0.065625"><path
             d="m 4,26.5 v 2 c 0,1.1 0.9,2 2,2 h 28 c 1.1,0 2,-0.9 2,-2 v -2 z"
             id="path14"
             inkscape:connector-curvature="0"
             style="clip-rule:evenodd;fill:#f1c40f;fill-rule:evenodd;stroke-width:0.065625" /></g></g><g
         id="Visa_3_"
         style="stroke-width:0.065625"><g
           id="g21"
           style="stroke-width:0.065625"><path
             d="m 22.5,19.2 c -0.7,-0.4 -1.1,-0.6 -1.1,-1 0,-0.3 0.4,-0.7 1.1,-0.7 0.6,0 1.1,0.1 1.5,0.3 l 0.2,0.1 0.3,-1.7 c -0.4,-0.2 -1,-0.3 -1.7,-0.3 -1.9,0 -3.3,1.1 -3.3,2.6 0,1.1 1,1.7 1.7,2.1 0.8,0.4 1,0.6 1,1 0,0.5 -0.6,0.8 -1.2,0.8 -0.8,0 -1.2,-0.1 -1.8,-0.4 l -0.3,-0.1 -0.3,1.7 c 0.5,0.2 1.3,0.4 2.2,0.4 2,0 3.4,-1 3.4,-2.6 0,-1 -0.5,-1.7 -1.7,-2.2 z m 6.9,-3.1 h -1.5 c -0.5,0 -0.8,0.1 -1,0.6 L 24,23.8 h 2 c 0,0 0.3,-1 0.4,-1.2 0.2,0 2.2,0 2.5,0 0.1,0.3 0.2,1.2 0.2,1.2 H 31 Z m -2.4,5 c 0.2,-0.4 0.8,-2.2 0.8,-2.2 0,0 0.2,-0.4 0.3,-0.7 l 0.1,0.7 c 0,0 0.4,1.8 0.4,2.2 z m -11.5,2.7 h 1.9 l 1.2,-7.7 h -1.9 z m -1.7,-7.7 -1.9,5.3 -0.2,-1.1 C 11.3,19.1 10.2,17.7 9,17 l 1.7,6.8 h 2.1 l 3.1,-7.7 z"
             id="path19"
             inkscape:connector-curvature="0"
             style="clip-rule:evenodd;fill:#34495e;fill-rule:evenodd;stroke-width:0.065625" /></g></g><g
         id="Visa_4_"
         style="stroke-width:0.065625"><g
           id="g26"
           style="stroke-width:0.065625"><path
             d="M 11,16.7 C 10.9,16.2 10.5,16.1 10.1,16 H 7 v 0.2 c 2.4,0.6 4.1,2.2 4.7,4.1 z"
             id="path24"
             inkscape:connector-curvature="0"
             style="clip-rule:evenodd;fill:#f1c40f;fill-rule:evenodd;stroke-width:0.065625" /></g></g></g><g
       id="Discover"
       style="stroke-width:0.065625" /><g
       id="Amex_3_"
       style="stroke-width:0.065625" /><g
       id="Bitcoin_3_"
       style="stroke-width:0.065625" /><g
       id="Google_Wallet_5_"
       style="stroke-width:0.065625" /><g
       id="PayPal_3_"
       style="stroke-width:0.065625" /><g
       id="Square_Payment_1_"
       style="stroke-width:0.065625" /><g
       id="Shop_5_"
       style="stroke-width:0.065625" /><g
       id="Postage"
       style="stroke-width:0.065625" /><g
       id="Package_7_"
       style="stroke-width:0.065625" /><g
       id="Discount_3_"
       style="stroke-width:0.065625" /><g
       id="Earth_3_"
       style="stroke-width:0.065625" /><g
       id="Barcode_3_"
       style="stroke-width:0.065625" /><g
       id="Cart_Plus_6_"
       style="stroke-width:0.065625" /><g
       id="Cart_Minus_6_"
       style="stroke-width:0.065625" /><g
       id="Cart_4_"
       style="stroke-width:0.065625" /><g
       id="Receipt_5_"
       style="stroke-width:0.065625" /><g
       id="Truck_9_"
       style="stroke-width:0.065625" /><g
       id="Calculator_6_"
       style="stroke-width:0.065625" /><g
       id="Euro_Symbol"
       style="stroke-width:0.065625" /><g
       id="Cent_Symbol"
       style="stroke-width:0.065625" /><g
       id="Dollar_Symbol"
       style="stroke-width:0.065625" /><g
       id="Pound_Symbol"
       style="stroke-width:0.065625" /><g
       id="Bank_5_"
       style="stroke-width:0.065625" /><g
       id="Wallet_3_"
       style="stroke-width:0.065625" /><g
       id="Coins_6_"
       style="stroke-width:0.065625" /><g
       id="Bills_6_"
       style="stroke-width:0.065625" /><g
       id="Dollar_Alt"
       style="stroke-width:0.065625" /><g
       id="Dollar"
       style="stroke-width:0.065625" /></g><g
     id="Lockup"
     transform="translate(0,280)" /></svg>