<?xml version="1.0" encoding="UTF-8" standalone="no"?>
<svg
   xmlns:dc="http://purl.org/dc/elements/1.1/"
   xmlns:cc="http://creativecommons.org/ns#"
   xmlns:rdf="http://www.w3.org/1999/02/22-rdf-syntax-ns#"
   xmlns:svg="http://www.w3.org/2000/svg"
   xmlns="http://www.w3.org/2000/svg"
   xmlns:sodipodi="http://sodipodi.sourceforge.net/DTD/sodipodi-0.dtd"
   xmlns:inkscape="http://www.inkscape.org/namespaces/inkscape"
   enable-background="new 0 0 512 512"
   id="Layer_1"
   version="1.1"
   viewBox="0 0 520 320"
   xml:space="preserve"
   sodipodi:docname="paypal.svg"
   width="520"
   height="320"
   inkscape:version="0.92.2 (5c3e80d, 2017-08-06)"><metadata
     id="metadata17"><rdf:RDF><cc:Work
         rdf:about=""><dc:format>image/svg+xml</dc:format><dc:type
           rdf:resource="http://purl.org/dc/dcmitype/StillImage" /><dc:title></dc:title></cc:Work></rdf:RDF></metadata><defs
     id="defs15" /><sodipodi:namedview
     pagecolor="#ffffff"
     bordercolor="#666666"
     borderopacity="1"
     objecttolerance="10"
     gridtolerance="10"
     guidetolerance="10"
     inkscape:pageopacity="0"
     inkscape:pageshadow="2"
     inkscape:window-width="1366"
     inkscape:window-height="705"
     id="namedview13"
     showgrid="false"
     inkscape:zoom="0.4609375"
     inkscape:cx="256"
     inkscape:cy="256"
     inkscape:window-x="-8"
     inkscape:window-y="-8"
     inkscape:window-maximized="1"
     inkscape:current-layer="Layer_1" /><g
     id="g10"
     transform="matrix(0.64838936,0,0,0.64838936,95.115157,-5.6859766)"
     style="stroke-width:1.54228318"><path
       d="m 151.7,447.4 c -31.1,0.1 -62.3,0.2 -93.4,0.1 -8.4,0 -13.8,-7.4 -12.4,-16 5.2,-33.1 10.1,-66.2 15.3,-99.2 4.7,-29.7 9.8,-59.4 14.5,-89.2 3.4,-21.5 6.4,-43 9.8,-64.5 5,-31.7 10.2,-63.4 15.3,-95.1 2.9,-18.2 5.6,-36.4 8.4,-54.6 1.8,-11.9 11.2,-20 23.4,-20 52.6,0 105.3,-0.4 157.9,0.2 28.7,0.3 57.2,3.9 83.3,17.2 27.1,13.6 43.6,35.7 49,65.7 2.5,14 1.6,28 -1.1,42 -11.2,-5.7 -23,-9.4 -35.2,-11.8 -15.2,-3 -30.8,-3.8 -46.3,-4 -39.1,-0.4 -78.3,-0.3 -117.4,0 -8.3,0.1 -15.7,3.5 -19,12 -1.5,3.9 -2,8.3 -2.6,12.6 -2.7,16.4 -5.3,32.9 -7.9,49.4 -2,12.7 -4.2,25.4 -6.1,38.1 -2.4,16.1 -4.5,32.3 -7.6,48.3 -1,5.3 -3.2,10.7 -1.6,16.4 -1.2,3.6 -2.3,7.2 -2.9,11 -2.8,18.5 -5.7,37 -8.6,55.5 -3.5,22.4 -6.8,44.9 -10.6,67.3 -1.2,6.2 -0.8,12.8 -4.2,18.6 z"
       id="path2"
       inkscape:connector-curvature="0"
       style="fill:#012d8a;stroke-width:1.54228318" /><path
       d="m 151.7,447.4 c 3.4,-5.7 3,-12.4 4,-18.6 3.8,-22.4 7.1,-44.8 10.6,-67.3 2.9,-18.5 5.8,-37 8.6,-55.5 0.6,-3.8 1.7,-7.4 2.9,-11 5.4,-8.4 12.9,-12.1 23.1,-12 25.5,0 51,1.3 76.4,-1.9 22.7,-2.8 44.4,-8.6 64.6,-19.4 31.1,-16.7 52.3,-42.2 65.6,-74.5 6.3,-15.4 11.3,-31.3 13.4,-47.9 0.2,-0.4 0.3,-0.8 0.5,-1.1 0.2,-1 0.4,-2 0.6,-3 23.8,12.6 36.5,32.8 39.9,59.2 2.8,21.7 -0.5,42.8 -5.9,63.8 -4.3,16.7 -10.9,32.4 -20.3,46.8 -15.3,23.6 -36.6,40 -63.1,49.4 -13.8,4.9 -28,7.7 -42.5,9.4 -12.1,1.4 -24.2,1.4 -36.3,1.5 -12.2,0 -20,6.7 -21.7,18.7 -3.7,25.3 -7.4,50.6 -11.8,75.9 -1.5,8.6 -2.7,17.3 -4.2,25.8 -1.9,10.4 -9.3,16.6 -19.8,16.6 -25.5,0 -51,0 -76.5,0 -9.7,0 -14.4,-5.6 -12.8,-15 1.9,-11.6 3.8,-23.1 5.7,-34.7 0.3,-1.9 0.8,-3.8 -1,-5.2 z"
       id="path4"
       inkscape:connector-curvature="0"
       style="fill:#019ae0;stroke-width:1.54228318" /><path
       d="m 422.1,135 c -0.2,1 -0.4,2 -0.6,3 -0.2,0.4 -0.3,0.8 -0.5,1.1 -2.1,16.6 -7.1,32.5 -13.4,47.9 -13.3,32.3 -34.5,57.8 -65.6,74.5 -20.2,10.8 -42,16.6 -64.6,19.4 -25.4,3.1 -50.9,1.9 -76.4,1.9 -10.2,0 -17.7,3.6 -23.1,12 -1.6,-5.6 0.6,-11.1 1.6,-16.4 3,-16 5.2,-32.2 7.6,-48.3 1.9,-12.7 4.1,-25.4 6.1,-38.1 2.6,-16.5 5.2,-32.9 7.9,-49.4 0.7,-4.2 1.1,-8.6 2.6,-12.6 3.3,-8.5 10.7,-12 19,-12 39.1,-0.3 78.3,-0.4 117.4,0 15.5,0.2 31,1 46.3,4 12.2,2.4 24.1,6.1 35.2,11.8 0.2,0.6 0.4,0.9 0.5,1.2 z"
       id="path6"
       inkscape:connector-curvature="0"
       style="fill:#001f6b;stroke-width:1.54228318" /><path
       d="m 421.1,139.2 c 0.2,-0.4 0.3,-0.8 0.5,-1.1 -0.2,0.3 -0.3,0.7 -0.5,1.1 z"
       id="path8"
       inkscape:connector-curvature="0"
       style="fill:#012d8a;stroke-width:1.54228318" /></g></svg>