<?xml version="1.0" encoding="UTF-8" standalone="no"?>
<svg
   xmlns:dc="http://purl.org/dc/elements/1.1/"
   xmlns:cc="http://creativecommons.org/ns#"
   xmlns:rdf="http://www.w3.org/1999/02/22-rdf-syntax-ns#"
   xmlns:svg="http://www.w3.org/2000/svg"
   xmlns="http://www.w3.org/2000/svg"
   xmlns:sodipodi="http://sodipodi.sourceforge.net/DTD/sodipodi-0.dtd"
   xmlns:inkscape="http://www.inkscape.org/namespaces/inkscape"
   enable-background="new 0 0 48 48"
   height="320"
   id="Layer_5"
   version="1.1"
   viewBox="0 0 520 320"
   width="520"
   xml:space="preserve"
   sodipodi:docname="sepa-transfer.svg"
   inkscape:version="0.92.2 (5c3e80d, 2017-08-06)"><metadata
     id="metadata15"><rdf:RDF><cc:Work
         rdf:about=""><dc:format>image/svg+xml</dc:format><dc:type
           rdf:resource="http://purl.org/dc/dcmitype/StillImage" /><dc:title></dc:title></cc:Work></rdf:RDF></metadata><defs
     id="defs13" /><sodipodi:namedview
     pagecolor="#ffffff"
     bordercolor="#666666"
     borderopacity="1"
     objecttolerance="10"
     gridtolerance="10"
     guidetolerance="10"
     inkscape:pageopacity="0"
     inkscape:pageshadow="2"
     inkscape:window-width="1366"
     inkscape:window-height="705"
     id="namedview11"
     showgrid="false"
     inkscape:zoom="0.61458333"
     inkscape:cx="347.82502"
     inkscape:cy="171.43967"
     inkscape:window-x="-8"
     inkscape:window-y="-8"
     inkscape:window-maximized="1"
     inkscape:current-layer="Layer_5" /><g
     id="g8"
     transform="matrix(10.666667,0,0,10.666667,3.999992,-96.000008)"
     style="stroke-width:0.09375"><polygon
       points="37.306,25.364 40.018,25.364 38.667,20.697 "
       id="polygon2"
       style="fill:#241f20;stroke-width:0.09375" /><path
       d="m 0,9 v 5.75 2.211 13.445 4.031 V 35 39 H 48 V 35 34.438 30.407 30.026 29.938 25.75 14.75 14 9 Z m 12.813,18.906 c -0.521,1.416 -2.399,1.508 -2.399,1.508 v -0.002 c -0.88,0.106 -1.955,0.057 -1.955,0.057 H 7.23 V 29.454 C 6.087,29.423 5.278,29.277 4.521,28.719 3.646,28.073 3.73,26.302 3.73,26.302 v -0.417 h 2.75 v 0.334 c 0,0 -0.021,0.833 0.75,0.938 h 1.812 c 0.341,-0.015 0.809,-0.074 0.938,-0.293 0.025,-0.043 0.062,-0.076 0.104,-0.1 0.069,-0.098 0.066,-0.253 0.063,-0.879 C 10.145,25.382 9.809,25.223 9.536,25.173 9.521,25.172 9.41,25.164 9.228,25.152 9.205,25.154 9.189,25.156 9.189,25.156 L 9.188,25.149 C 8.468,25.101 6.844,24.986 6.145,24.902 6.145,24.902 6.131,24.9 6.128,24.9 6.114,24.898 6.1,24.897 6.086,24.895 6.07,24.893 6.059,24.89 6.037,24.887 5.975,24.879 5.912,24.869 5.876,24.863 5.873,24.862 5.872,24.86 5.869,24.859 5.354,24.757 4.268,24.438 4.001,23.508 3.665,22.342 3.497,20.393 4.402,19.389 4.423,19.359 4.427,19.33 4.459,19.3 4.472,19.287 4.492,19.281 4.506,19.269 4.521,19.255 4.53,19.237 4.545,19.224 c 0.3,-0.262 0.664,-0.408 1.034,-0.491 0.561,-0.158 1.159,-0.221 1.609,-0.246 0.792,-0.042 2.459,0 2.459,0 l 0.004,0.001 c 0.322,0.007 1.236,0.069 2.079,0.541 1.042,0.583 0.979,2.062 0.979,2.062 v 0.854 H 11.126 9.938 C 9.983,21.015 9.646,20.82 9.334,20.757 9.146,20.719 8.765,20.697 8.489,20.685 8.397,20.681 7.113,20.627 6.792,21.049 c -0.333,0.438 -0.104,1.062 -0.104,1.125 0,0.063 0.021,0.562 1.146,0.542 0.025,0.008 0.038,0.017 0.062,0.025 0.586,0.035 1.64,0.1 2.354,0.162 10e-4,0 10e-4,0 10e-4,0 0.001,0 0.001,0 0.002,0 0.33,0.029 0.586,0.057 0.683,0.08 0.005,0.001 10e-4,0.009 0.005,0.011 1.821,0.354 2.019,1.618 2.019,1.618 0,0 0.374,1.877 -0.147,3.294 z m 11.065,-6.39 v 0.021 c -0.717,-0.941 -1.837,-1.559 -3.111,-1.559 -1.435,0 -2.676,0.778 -3.359,1.927 h 6.261 l -0.834,1.646 H 16.88 c -0.011,0.117 -0.035,0.229 -0.035,0.349 0,0.202 0.03,0.396 0.06,0.589 h 5.514 l -0.771,1.625 h -4.114 c 0.706,1.03 1.891,1.708 3.234,1.708 1.274,0 2.395,-0.617 3.111,-1.559 v 2.09 c -0.939,0.736 -2.121,1.18 -3.407,1.18 -2.307,0 -4.281,-1.412 -5.112,-3.419 h -1.899 l 0.729,-1.625 h 0.774 C 14.95,24.328 14.94,24.166 14.94,24.001 c 0,-0.152 0.011,-0.301 0.022,-0.45 h -1.605 l 0.833,-1.646 h 1.164 c 0.826,-2.016 2.806,-3.437 5.118,-3.437 1.587,0 3.015,0.672 4.023,1.743 z m 6.206,5.078 h -2.208 v 2.887 H 24.938 V 18.469 h 2.479 0.458 2.396 c 0,0 0.102,-0.004 0.27,0 h 0.043 v 10e-4 c 0.739,0.021 2.588,0.186 3.167,1.31 0.554,1.076 0.566,2.28 0.541,2.799 -0.002,0.042 -0.064,1.583 -0.188,2.034 -0.125,0.458 -0.396,1.23 -1.312,1.688 -0.916,0.458 -2.708,0.293 -2.708,0.293 z m 11.125,2.886 -0.552,-1.908 h -3.995 l -0.557,1.908 h -3.042 l 3.312,-11.013 h 4.521 l 3.375,11.013 z"
       id="path4"
       inkscape:connector-curvature="0"
       style="fill:#241f20;stroke-width:0.09375" /><path
       d="m 30.001,20.801 h -2.125 v 3.292 h 1.955 c 0.273,-0.002 1.207,-0.047 1.295,-0.562 0.097,-0.565 0.092,-1.194 0.091,-1.274 -0.015,-0.22 -0.044,-0.525 -0.111,-0.851 -0.126,-0.605 -1.105,-0.605 -1.105,-0.605 z"
       id="path6"
       inkscape:connector-curvature="0"
       style="fill:#241f20;stroke-width:0.09375" /></g></svg>