<?xml version="1.0" encoding="UTF-8" standalone="no"?>
<svg
   xmlns:dc="http://purl.org/dc/elements/1.1/"
   xmlns:cc="http://creativecommons.org/ns#"
   xmlns:rdf="http://www.w3.org/1999/02/22-rdf-syntax-ns#"
   xmlns:svg="http://www.w3.org/2000/svg"
   xmlns="http://www.w3.org/2000/svg"
   xmlns:sodipodi="http://sodipodi.sourceforge.net/DTD/sodipodi-0.dtd"
   xmlns:inkscape="http://www.inkscape.org/namespaces/inkscape"
   height="320"
   version="1.1"
   viewBox="0 0 520 320"
   width="520"
   id="svg11"
   sodipodi:docname="skrill.svg"
   inkscape:version="0.92.2 (5c3e80d, 2017-08-06)">
  <metadata
     id="metadata15">
    <rdf:RDF>
      <cc:Work
         rdf:about="">
        <dc:format>image/svg+xml</dc:format>
        <dc:type
           rdf:resource="http://purl.org/dc/dcmitype/StillImage" />
        <dc:title></dc:title>
      </cc:Work>
    </rdf:RDF>
  </metadata>
  <sodipodi:namedview
     pagecolor="#ffffff"
     bordercolor="#666666"
     borderopacity="1"
     objecttolerance="10"
     gridtolerance="10"
     guidetolerance="10"
     inkscape:pageopacity="0"
     inkscape:pageshadow="2"
     inkscape:window-width="1366"
     inkscape:window-height="705"
     id="namedview13"
     showgrid="false"
     inkscape:zoom="1.88125"
     inkscape:cx="80"
     inkscape:cy="50"
     inkscape:window-x="-8"
     inkscape:window-y="-8"
     inkscape:window-maximized="1"
     inkscape:current-layer="svg11" />
  <defs
     id="defs4" />
  <g
     id="Page-1"
     style="fill:none;fill-rule:evenodd;stroke:none;stroke-width:0.3125"
     transform="matrix(3.2,0,0,3.2,4,0)">
    <g
       id="skrill"
       transform="translate(-1)"
       style="stroke-width:0.3125">
      <path
         d="m 149,1.0114669e-6 c -8,7.54979e-7 -92.699219,-2.6146506e-6 -140,0 C 5,1.2325753e-6 1,4.000001 1,8.000001 v 80 c -4.6e-7,8 4,11.999999 12,11.999999 44.62321,0 128,0 136,0 8,0 12,-3.999999 12,-11.999999 v -76 C 161,4.000001 157,1.0114669e-6 149,1.0114669e-6 Z m 0,0"
         id="Rectangle-1"
         inkscape:connector-curvature="0"
         style="fill:#6a3494;stroke-width:0.3125" />
      <path
         d="m 110.66304,61.428889 c 2.97722,0 5.39038,2.365988 5.39038,5.284135 0,2.918715 -2.41316,5.286976 -5.39038,5.286976 -2.97374,0 -5.38575,-2.368261 -5.38575,-5.286976 0,-2.918147 2.41201,-5.284135 5.38575,-5.284135 0,0 -2.97374,0 0,0 z M 69.379263,58.576069 C 69.136614,57.976193 67.385957,53.125491 63.152065,48.09812 V 69.594815 L 51.870951,67.407199 V 28.443658 h 11.281114 v 12.044103 c 3.267353,-4.806962 4.880761,-12.044103 4.880761,-12.044103 H 81.54526 c -1.336592,5.450011 -7.183313,15.500775 -7.183313,15.500775 5.247339,6.525924 7.552208,13.479033 7.918786,14.631636 z m 29.658093,0.406166 C 88.932999,58.664119 83.803799,54.217311 83.803799,45.37766 V 28.443658 h 11.023408 v 13.809079 c 0,5.293793 0.706518,7.562642 7.109763,7.778507 v 8.79591 c -1.07773,0.224385 -2.899614,0.155081 -2.899614,0.155081 z M 32.951343,54.285478 c -1.381763,0.08919 -4.580781,0.291417 -4.580781,3.116402 0,3.408954 4.605683,3.408954 6.333176,3.408954 3.037445,0 6.971357,-0.879931 9.780632,-1.704193 0,0 1.567079,-0.541933 2.900196,-1.0975 l 0.124509,-0.03295 v 9.336139 l -0.170259,0.04942 c -3.315419,1.137833 -7.170572,2.233061 -14.317979,2.233061 -12.323517,0 -16.690026,-7.042295 -16.690026,-13.075707 0,-3.477691 1.519013,-11.662364 15.633145,-12.606487 1.196447,-0.07214 4.371142,-0.251084 4.371142,-3.170935 0,-2.410298 -2.599057,-3.831595 -6.971358,-3.831595 -4.791577,0 -9.439535,1.198616 -12.262709,2.335313 V 29.629777 C 21.327395,28.54307 26.091754,28 31.675558,28 c 12.049596,0 17.446346,6.663396 17.446346,13.267145 0,7.487658 -6.038986,12.351994 -16.170561,13.018333 0,0 10.131575,-0.666339 0,0 z m 72.247197,-25.84182 h 10.93422 v 30.098327 h -10.93422 z m 31.52283,39.232235 V 28.443658 h 10.93596 v 41.151157 z m -15.95687,0 10.92554,1.918922 V 28.443658 H 120.7645 Z m 0,0"
         transform="matrix(1,0,0,-1,0,100)"
         id="path7"
         inkscape:connector-curvature="0"
         style="fill:#ffffff;stroke-width:0.3125" />
    </g>
  </g>
</svg>
