<?xml version="1.0" encoding="UTF-8" standalone="no"?>
<svg
   xmlns:dc="http://purl.org/dc/elements/1.1/"
   xmlns:cc="http://creativecommons.org/ns#"
   xmlns:rdf="http://www.w3.org/1999/02/22-rdf-syntax-ns#"
   xmlns:svg="http://www.w3.org/2000/svg"
   xmlns="http://www.w3.org/2000/svg"
   xmlns:sodipodi="http://sodipodi.sourceforge.net/DTD/sodipodi-0.dtd"
   xmlns:inkscape="http://www.inkscape.org/namespaces/inkscape"
   width="135"
   height="25"
   viewBox="0 0 135 25"
   version="1.1"
   id="svg18"
   sodipodi:docname="bisq.svg"
   inkscape:version="0.92.2 (5c3e80d, 2017-08-06)">
  <metadata
     id="metadata22">
    <rdf:RDF>
      <cc:Work
         rdf:about="">
        <dc:format>image/svg+xml</dc:format>
        <dc:type
           rdf:resource="http://purl.org/dc/dcmitype/StillImage" />
        <dc:title>bisq_logo_green</dc:title>
      </cc:Work>
    </rdf:RDF>
  </metadata>
  <sodipodi:namedview
     pagecolor="#ffffff"
     bordercolor="#666666"
     borderopacity="1"
     objecttolerance="10"
     gridtolerance="10"
     guidetolerance="10"
     inkscape:pageopacity="0"
     inkscape:pageshadow="2"
     inkscape:window-width="1366"
     inkscape:window-height="705"
     id="namedview20"
     showgrid="false"
     inkscape:zoom="1.2235772"
     inkscape:cx="123"
     inkscape:cy="42.5"
     inkscape:window-x="-8"
     inkscape:window-y="-8"
     inkscape:window-maximized="1"
     inkscape:current-layer="svg18" />
  <!-- Generator: Sketch 50.2 (55047) - http://www.bohemiancoding.com/sketch BISQ -->
  <title
     id="title2">bisq_logo_green</title>
  <desc
     id="desc4">Created with Sketch.</desc>
  <defs
     id="defs6" />
  <g
     id="bisq_logo_green"
     style="fill:none;fill-rule:evenodd;stroke:none;stroke-width:3.37085438"
     transform="matrix(0.2966607,0,0,0.2966607,31.146511,1.2121505e-7)">
    <g
       id="Group-3-Copy"
       transform="translate(88,2)"
       style="fill:#25b135;fill-rule:nonzero;stroke-width:3.37085438">
      <g
         id="Group-2"
         style="stroke-width:3.37085438">
        <rect
           id="Rectangle-path"
           x="52.906734"
           y="16.994974"
           width="12.694301"
           height="47.698494"
           style="stroke-width:3.37085438" />
        <path
           d="m 92.180697,35.710764 -4.639374,-1.015517 c -3.026976,-0.608765 -4.639375,-2.031035 -4.639375,-4.064799 0,-2.033764 2.419954,-3.658046 5.647463,-3.658046 2.606582,-0.327568 5.127881,1.065623 6.254484,3.456035 l 9.078215,-6.095833 c -3.20182,-5.200988 -8.853804,-8.355277 -14.928922,-8.331609 -4.154133,-0.0406 -8.226699,1.162237 -11.701414,3.456034 -3.504086,2.4802 -5.665817,6.459297 -5.850707,10.769396 -0.200533,7.316091 4.639375,12.80316 13.313814,15.240947 1.412769,0.405843 3.026975,0.812596 4.842619,1.220259 4.035063,0.818965 4.639375,2.235775 4.639375,3.658046 0,2.642528 -2.419955,4.26681 -6.051241,4.064798 -3.977012,0.0701 -7.650753,-2.133468 -9.484704,-5.68908 L 71,55.423262 c 3.242831,6.261552 9.735657,10.123078 16.744566,9.95862 9.682527,0.202012 17.752654,-6.502585 17.953194,-14.834194 -0.0109,-7.523563 -4.63938,-12.80589 -13.517063,-14.836924 z"
           id="Shape"
           inkscape:connector-curvature="0"
           style="stroke-width:3.37085438" />
        <path
           d="M 24.578575,16.258606 C 20.086762,16.23929 15.725029,17.765018 12.22555,20.579674 V 0 H 0.07721021 v 38.074055 c -0.10294695,1.095135 -0.10294695,2.197503 0,3.292637 v 0.616506 c 0.06439647,6.540036 2.64454269,12.804451 7.20547039,17.494382 3.8752334,3.741052 8.8601814,6.124569 14.2062554,6.792619 h 3.089639 c 6.468146,0.06312 12.69399,-2.456595 17.295896,-6.999964 4.73897,-4.824068 7.335923,-11.351489 7.20547,-18.110887 0.03382,-6.741508 -2.549042,-13.233497 -7.20547,-18.110887 -4.698236,-4.368807 -10.878776,-6.795104 -17.295896,-6.789855 z m 0.204686,38.895141 c -0.692545,0.04445 -1.387699,-0.02466 -2.057916,-0.20458 h -0.412136 c -0.231413,0.03119 -0.464245,-0.04638 -0.630652,-0.21011 -4.973931,-1.020271 -8.766864,-5.059269 -9.470837,-10.085256 -0.250767,-1.150516 -0.388798,-2.322713 -0.412136,-3.499983 -0.191858,-3.536618 1.059514,-6.999805 3.468019,-9.597782 2.408505,-2.597978 5.768202,-4.108603 9.310972,-4.186507 9.266152,0 12.560477,7.20178 12.560477,13.789819 0,6.792619 -3.089639,13.789819 -12.353025,13.994399 z"
           id="path10"
           inkscape:connector-curvature="0"
           style="stroke-width:3.37085438" />
        <path
           d="m 157.08463,40.213429 c -0.0645,-6.519906 -2.64871,-12.76504 -7.21682,-17.440535 -3.88134,-3.729538 -8.87415,-6.105719 -14.22864,-6.771713 h -3.09451 c -6.47794,-0.06365 -12.71353,2.447288 -17.32314,6.975663 -4.74644,4.80922 -7.34748,11.31655 -7.21683,18.055143 -0.0339,6.720758 2.55306,13.192766 7.21683,18.055144 4.60961,4.528376 10.8452,7.039318 17.32314,6.975663 4.49889,0.01926 8.8675,-1.501776 12.37249,-4.307768 v 20.516331 h 12.16748 z m -24.95275,14.375764 c -9.28075,0 -12.58027,-7.179614 -12.58027,-13.747376 0,-6.567761 3.29952,-13.747375 12.37249,-13.747375 0.69363,-0.04431 1.38988,0.02458 2.06116,0.203951 h 0.41278 c 0.22631,-0.02816 0.45331,0.04677 0.6178,0.20395 5.86279,1.312684 9.99532,6.537722 9.89854,12.515404 v 0.826826 c 0.26531,3.54125 -0.96078,7.032893 -3.3849,9.639465 -2.42411,2.606573 -5.82815,4.093557 -9.3976,4.105155 z"
           id="path12"
           inkscape:connector-curvature="0"
           style="stroke-width:3.37085438" />
      </g>
    </g>
    <path
       d="m 62.560834,18.188908 c 2.610883,5.677146 3.165401,6.849631 5.16736,12.62289 1.149467,3.627043 -1.152961,8.99911 -10.645671,4.43269 C 50.32198,32.0219 45.430631,29.73869 49.459006,24.366622 c 1.96319,-2.606738 4.185821,-5.034468 6.638259,-7.250823 2.609806,-2.279334 4.225967,-3.715859 6.463569,1.073109 z m -2.25085,36.363121 c 4.971743,-4.889353 11.879554,0.580564 7.054326,7.143749 C 57.642424,74.986162 40.670184,80.286072 25.462309,74.945878 10.254434,69.605683 -0.0026871,55.004203 3.2817964e-4,38.30107 -0.03799886,28.294062 3.28138,19.943745 9.6237542,12.421969 15.728725,5.5906435 24.817274,0.11688564 33.780997,0 c 12.600292,0 18.229725,11.02222 13.791947,17.168641 -4.958719,6.834252 -10.724899,6.278566 -15.012906,3.347665 0,0 -5.899672,-4.184581 -7.641573,-5.580571 -2.682853,-2.090596 -5.632688,-2.090596 -6.703876,1.257069 -1.875392,5.997335 -2.813089,9.765152 -4.288006,15.762487 -0.68616,3.01746 -1.045461,6.105394 -1.071188,9.206078 0.0308,5.707994 2.544967,11.094115 6.837368,14.647728 2.963876,2.783873 6.147409,5.303495 9.516965,7.532246 2.71297,1.850919 5.873074,2.866875 9.11649,2.930901 h 0.266983 c 3.243416,-0.06403 6.403521,-1.079982 9.116491,-2.930901 4.38183,-2.637265 8.591127,-5.573454 12.600292,-8.789314 z M 24.861921,47.640414 c -1.788128,-0.655022 -5.83601,-4.187687 -4.646818,-6.807773 0.477413,-1.440412 3.932145,-1.831517 5.002707,-1.831517 6.316316,-0.130368 6.553576,11.129007 -0.355889,8.63929 z m 11.108998,11.996071 c -0.806771,-0.72327 -2.286395,-2.169809 -3.632102,-3.376234 -0.372665,-0.404507 -0.44438,-0.967919 -0.18295,-1.437296 0.26143,-0.469377 0.806879,-0.756517 1.391473,-0.732512 2.373769,-0.120591 4.75325,-0.120591 7.127019,0 0.55074,0.04052 1.027364,0.359319 1.227547,0.821066 0.200184,0.461748 0.08881,0.985428 -0.286858,1.348742 -1.342441,1.206425 -2.822065,2.652964 -3.494918,3.376234 -0.291948,0.241643 -0.677378,0.371876 -1.074606,0.363098 -0.397227,0.0088 -0.782658,-0.121455 -1.074605,-0.363098 z m 14.16716,-11.996071 c -6.909465,2.489717 -6.672205,-8.769658 -0.355889,-8.63929 1.070562,0 4.406664,0.391105 5.002707,1.831517 1.189192,2.620086 -2.85869,6.152751 -4.646818,6.807773 z"
       id="Combined-Shape"
       inkscape:connector-curvature="0"
       style="fill:#25b135;fill-rule:nonzero;stroke-width:3.37085438" />
  </g>
</svg>
