<?xml version="1.0" encoding="UTF-8" standalone="no"?>
<svg
   xmlns:dc="http://purl.org/dc/elements/1.1/"
   xmlns:cc="http://creativecommons.org/ns#"
   xmlns:rdf="http://www.w3.org/1999/02/22-rdf-syntax-ns#"
   xmlns:svg="http://www.w3.org/2000/svg"
   xmlns="http://www.w3.org/2000/svg"
   xmlns:sodipodi="http://sodipodi.sourceforge.net/DTD/sodipodi-0.dtd"
   xmlns:inkscape="http://www.inkscape.org/namespaces/inkscape"
   viewBox="0 0 70 25.000001"
   version="1.1"
   id="svg6"
   sodipodi:docname="localbitcoins.svg"
   width="70"
   height="25"
   inkscape:version="0.92.2 (5c3e80d, 2017-08-06)">
  <metadata
     id="metadata12">
    <rdf:RDF>
      <cc:Work
         rdf:about="">
        <dc:format>image/svg+xml</dc:format>
        <dc:type
           rdf:resource="http://purl.org/dc/dcmitype/StillImage" />
        <dc:title></dc:title>
      </cc:Work>
    </rdf:RDF>
  </metadata>
  <defs
     id="defs10" />
  <sodipodi:namedview
     pagecolor="#ffffff"
     bordercolor="#666666"
     borderopacity="1"
     objecttolerance="10"
     gridtolerance="10"
     guidetolerance="10"
     inkscape:pageopacity="0"
     inkscape:pageshadow="2"
     inkscape:window-width="1366"
     inkscape:window-height="705"
     id="namedview8"
     showgrid="false"
     inkscape:zoom="3.1482553"
     inkscape:cx="122.61567"
     inkscape:cy="-34.65494"
     inkscape:window-x="-8"
     inkscape:window-y="-8"
     inkscape:window-maximized="1"
     inkscape:current-layer="svg6" />
  <g
     id="g824"
     transform="matrix(0.05895852,0,0,0.05895852,25.041316,23.527397)"
     style="stroke-width:16.96107674">
    <path
       style="fill:#f47116;stroke-width:16.96107674"
       inkscape:connector-curvature="0"
       id="path2"
       d="m 168.91,-399.04999 a 175.4,175.4 0 0 1 35.24,3.69 l -9.15,34.06 a 136.64,136.64 0 0 0 -52.14,0 l -9.19,-34.06 a 175.33,175.33 0 0 1 35.24,-3.69 z m 52.14,8.27 a 168.12,168.12 0 0 1 60.95,35.24 l -24.9,24.9 a 133.5,133.5 0 0 0 -45.21,-26.16 z m 73.35,47.64 a 167.56,167.56 0 0 1 35.24,61 l -34,9.08 a 135.07,135.07 0 0 0 -26.14,-45.18 z m 39.73,77.85 a 170.12,170.12 0 0 1 0,70.48 l -34,-9.17 a 136.58,136.58 0 0 0 0,-52.23 z m -4.49,87.38 a 168.26,168.26 0 0 1 -35.24,60.94 l -24.9,-24.9 a 133.61,133.61 0 0 0 26.07,-45.18 z m -47.64,73.35 a 170.88,170.88 0 0 1 -60.94,35.240002 l -9.17,-34.070002 a 132.35,132.35 0 0 0 45.21,-26.16 z m -77.84,39.730002 a 170.12,170.12 0 0 1 -70.48,0 l 9.17,-34.07 a 131.51,131.51 0 0 0 52.14,0 z m -87.38,-4.49 A 169.6,169.6 0 0 1 55.83,-104.55999 l 24.9,-25 a 132.49,132.49 0 0 0 45.22,26.16 z M 43.42,-116.96999 a 168.12,168.12 0 0 1 -35.24,-60.94 l 34,-9.17 a 135,135 0 0 0 26.16,45.21 z m -39.73,-77.84 a 170.12,170.12 0 0 1 0,-70.48 l 34,9.08 a 137.11,137.11 0 0 0 0,52.23 z m 4.49,-87.38 a 168.53,168.53 0 0 1 35.24,-61 l 24.9,25 a 133,133 0 0 0 -26.07,45.13 z m 47.64,-73.35 a 168.16,168.16 0 0 1 61,-35.24 l 9.17,34 a 133.64,133.64 0 0 0 -45.27,26.14 z" />
    <path
       style="fill:#196bbf;stroke-width:16.96107674"
       inkscape:connector-curvature="0"
       id="path4"
       d="m 155.51,-346.54999 c 27.87,-3.24 56.91,3.77 79.92,19.86 31.19,21.22 51.24,58.16 50.61,96 0.9,37.12 -18.07,73.71 -48.09,95.28 a 116.11,116.11 0 0 1 -48.19,20.5 c -9.71,2.07 -19.59,1.71 -29.3,1.53 -35.42,-2.34 -69,-22.12 -88.64,-51.6 a 116.54,116.54 0 0 1 -4.82,-122.6 c 18,-32.18 51.84,-54.84 88.51,-58.97 z m 5,34.88 c -0.09,7.1 -0.54,14.11 -0.36,21.12 -13.75,0 -27.51,0 -41.26,0.09 0.09,7.55 0,15.1 0.09,22.65 H 135 c 0.09,25.08 0,50.16 0.09,75.33 h -16.16 c -0.09,7.55 0,15 0,22.57 13.75,0.18 27.5,0.09 41.17,0.09 0.9,7 -0.45,14.11 0.36,21.12 h 17.26 c 0.09,-7 0,-14.11 0.18,-21.12 12.22,-0.54 24.81,-4.86 33.17,-14.21 8,-8.54 9.89,-21.48 6.74,-32.45 -2.34,-8.45 -9.17,-14.83 -16.9,-18.43 4.58,-3.86 9,-8.27 11.15,-14 3.77,-9.8 2.78,-22 -4.77,-29.84 -7.46,-8.18 -18.79,-11.15 -29.39,-11.87 -0.18,-7 -0.09,-14 -0.09,-21 z m 1,43.86 c 6.56,0.27 13.57,-1 19.86,1.53 8.09,3.42 6.92,16.18 0.09,20.32 -6,3.5 -13.3,2.33 -20,2.6 0.08,-8.18 0.08,-16.36 -0.01,-24.45 z m 0.09,47.2 c 7.91,0 16.27,-0.9 23.73,2.42 9.17,4.23 8.63,19.51 -0.36,23.56 -7.37,3.32 -15.64,1.88 -23.37,2.15 z M 79.73,-71.299988 c 18.16,9.71 37.76,17.08 58.17,20.49 a 182.24,182.24 0 0 0 103.46,-12.24 c 5.48,-2.16 10.52,-5.31 16,-7.37 -4.22,6.47 -9.62,12 -14.47,18.07 -18.43,21.75 -36.95,43.5000002 -56.81,64 -4.86,4.49 -9.44,9.53 -15.19,12.85 -2.43,1.44 -4.77,-0.72 -6.66,-2 A 172.53,172.53 0 0 1 148.59,7.9500122 C 124.5,-17.459988 101.76,-44.149988 79.73,-71.299988 Z" />
  </g>
</svg>
