<?xml version="1.0" encoding="UTF-8" standalone="no"?>
<svg
   xmlns:dc="http://purl.org/dc/elements/1.1/"
   xmlns:cc="http://creativecommons.org/ns#"
   xmlns:rdf="http://www.w3.org/1999/02/22-rdf-syntax-ns#"
   xmlns:svg="http://www.w3.org/2000/svg"
   xmlns="http://www.w3.org/2000/svg"
   xmlns:sodipodi="http://sodipodi.sourceforge.net/DTD/sodipodi-0.dtd"
   xmlns:inkscape="http://www.inkscape.org/namespaces/inkscape"
   enable-background="new 0 0 123.7 23.3"
   viewBox="0 0 135 25.000001"
   class="c-header__logoImg"
   version="1.1"
   id="svg6"
   sodipodi:docname="paxful.svg"
   width="135"
   height="25"
   style="fill:currentColor"
   inkscape:version="0.92.2 (5c3e80d, 2017-08-06)">
  <metadata
     id="metadata12">
    <rdf:RDF>
      <cc:Work
         rdf:about="">
        <dc:format>image/svg+xml</dc:format>
        <dc:type
           rdf:resource="http://purl.org/dc/dcmitype/StillImage" />
        <dc:title></dc:title>
      </cc:Work>
    </rdf:RDF>
  </metadata>
  <defs
     id="defs10" />
  <sodipodi:namedview
     pagecolor="#ffffff"
     bordercolor="#666666"
     borderopacity="1"
     objecttolerance="10"
     gridtolerance="10"
     guidetolerance="10"
     inkscape:pageopacity="0"
     inkscape:pageshadow="2"
     inkscape:window-width="1366"
     inkscape:window-height="705"
     id="namedview8"
     showgrid="false"
     inkscape:zoom="2.4333064"
     inkscape:cx="61.849998"
     inkscape:cy="11.65"
     inkscape:window-x="-8"
     inkscape:window-y="-8"
     inkscape:window-maximized="1"
     inkscape:current-layer="svg6" />
  <g
     id="g824"
     transform="translate(1.15514,-0.00625071)">
    <path
       style="stroke-width:1"
       inkscape:connector-curvature="0"
       id="path2"
       d="M 97.9351,1.8297961 V 12.878334 c 0,3.861625 1.60901,5.363368 4.39796,5.363368 2.78895,0 4.39796,-1.60901 4.39796,-5.363368 V 1.8297961 h 4.6125 V 12.985602 c 0,5.899705 -3.32529,9.117725 -9.01046,9.117725 -5.577901,0 -9.010457,-3.21802 -9.010457,-9.117725 V 1.8297961 Z m -64.145882,0 8.903191,19.9517289 H 37.865378 L 36.041833,17.490831 H 26.81684 l -1.823545,4.290694 H 20.273531 L 29.176722,1.8297961 Z m 53.311878,0 V 5.5841537 H 76.696162 v 5.2561013 h 9.117726 v 3.754357 h -9.117726 v 7.294181 H 72.083666 V 1.8297961 Z m 35.183694,0 V 18.027168 h 10.40493 v 3.754357 H 117.67229 V 1.8297961 Z m -113.5961338,0 c 5.2561008,0 8.6886558,2.681684 8.6886558,7.2941807 0,4.3979622 -3.325288,7.1869132 -8.6886558,7.1869132 H 4.6124965 v 5.577903 H 0 V 1.8297961 Z m 50.4156588,10.6194689 6.757844,9.33226 h -4.397962 c -0.643604,0 -1.287208,-0.214534 -1.716277,-0.750871 l -0.107268,-0.107268 -2.467149,-3.432555 c -0.536337,-0.858139 -0.536337,-1.930813 0,-2.788951 L 57.28077,14.487345 Z M 31.429336,6.4422926 28.318583,14.058275 h 6.328774 z M 8.4741214,5.5841537 H 4.6124965 v 6.9723783 h 3.7543576 c 2.8962189,0 4.2906939,-1.287208 4.2906939,-3.4325552 0,-2.1453474 -1.394475,-3.5398231 -4.1834266,-3.5398231 z M 50.308392,1.8297961 c 0.750871,0 1.287208,0.2145347 1.716278,0.7508715 l 0.107267,0.1072674 1.287208,1.8235451 c 0.536337,0.7508715 0.536337,1.8235451 0.107268,2.5744166 L 53.419145,7.1931641 51.5956,9.767581 45.803163,1.7225287 Z" />
    <path
       style="fill:#00a5ef;stroke-width:1"
       inkscape:connector-curvature="0"
       id="path4"
       d="M 67.685704,0.00625098 44.515954,24.892279 c -0.214534,0.321802 -0.750871,-0.107268 -0.429069,-0.42907 L 60.820593,0.86438986 c 0.42907,-0.5363368 1.072674,-0.85813888 1.823545,-0.85813888 z" />
  </g>
</svg>
